<?xml version="1.0" encoding="utf-8"?>
<!-- Generator: Adobe Illustrator 15.0.0, SVG Export Plug-In . SVG Version: 6.00 Build 0)  -->
<!DOCTYPE svg PUBLIC "-//W3C//DTD SVG 1.1//EN" "http://www.w3.org/Graphics/SVG/1.1/DTD/svg11.dtd">
<svg version="1.1" id="Calque_1" xmlns="http://www.w3.org/2000/svg" xmlns:xlink="http://www.w3.org/1999/xlink" x="0px" y="0px"
	 width="15px" height="15px" viewBox="0 0 15 15" enable-background="new 0 0 15 15" xml:space="preserve">
<path fill="#1B5FAA" d="M1.679,7.171L1.525,7.893L1.464,7.875L1.403,7.893L1.286,7.245L1.168,7.893L1.107,7.875L1.046,7.893
	L0.893,7.171l0.094-0.028l0.12,0.643l0.12-0.643l0.059,0.018l0.059-0.018l0.12,0.643l0.12-0.643L1.679,7.171z"/>
<path fill="#1B5FAA" d="M2.13,7.896L2.054,7.663H1.821L1.748,7.896L1.656,7.857l0.227-0.722l0.056,0.023l0.056-0.023l0.227,0.722
	L2.13,7.896z M1.832,7.623L1.88,7.561h0.146L1.939,7.245L1.832,7.623z"/>
<path fill="#1B5FAA" d="M2.735,7.143v0.752H2.638V7.816L2.604,7.854l-0.25-0.502v0.541H2.258v-0.75h0.097v0.086l0.031-0.041
	l0.252,0.505v-0.55H2.735z"/>
<path fill="#1B5FAA" d="M3.332,7.426l0.01,0.102H3.337v0.023L3.324,7.635L3.301,7.699L3.26,7.783L3.204,7.837L3.146,7.873
	L3.092,7.888L3.071,7.89H2.862V7.832H2.814V7.199h0.048V7.14h0.207l0.059,0.008l0.056,0.028l0.043,0.039l0.046,0.059l0.033,0.069
	L3.332,7.426z M3.24,7.541V7.498L3.235,7.449L3.219,7.377L3.196,7.329l-0.03-0.041L3.14,7.265L3.107,7.25L3.066,7.245H2.913v0.582
	l0.031-0.041h0.123h0.01l0.036-0.01L3.15,7.75l0.036-0.036l0.028-0.059l0.015-0.043L3.24,7.541z"/>
<path fill="#1B5FAA" d="M3.492,7.829l0.033-0.041h0.291v0.105H3.444V7.834H3.396V7.202h0.048V7.143h0.347v0.104H3.492v0.25
	l0.033-0.041h0.222V7.56H3.495v0.268L3.492,7.829L3.492,7.829z"/>
<path fill="#1B5FAA" d="M4.311,7.495L4.258,7.538H4.255l0.107,0.314L4.273,7.898l-0.12-0.347H3.995v0.342H3.898V7.202h0.048V7.143
	h0.229h0.031l0.046,0.01l0.043,0.023l0.036,0.041L4.36,7.271l0.01,0.048L4.324,7.334h0.048v0.041l-0.02,0.077L4.311,7.495z
	 M3.995,7.248v0.245l0.03-0.041h0.141h0.01h0.026h0.005L4.215,7.45l0.033-0.031l0.018-0.025l0.01-0.036V7.332L4.271,7.309
	L4.255,7.283l-0.018-0.02l-0.018-0.01L4.196,7.248h-0.02H3.995z"/>
<path fill="#1B5FAA" d="M4.413,7.893v-0.75H4.51v0.752H4.413V7.893z"/>
<path fill="#1B5FAA" d="M5.087,7.143v0.752H4.99V7.816L4.957,7.854l-0.25-0.502v0.541H4.61v-0.75h0.097v0.086l0.031-0.041
	L4.99,7.694V7.143H5.087z"/>
<path fill="#1B5FAA" d="M5.646,7.518h0.046v0.186L5.64,7.788L5.582,7.85L5.513,7.888l-0.074,0.01L5.367,7.893L5.304,7.867
	L5.26,7.834L5.219,7.788l-0.03-0.053L5.166,7.671L5.153,7.6L5.148,7.538V7.525h-0.01l0.021-0.12l0.018-0.066L5.21,7.28l0.04-0.051
	l0.048-0.046l0.074-0.031l0.061-0.005l0.059,0.01L5.546,7.17l0.051,0.038l0.051,0.056l0.028,0.054l0.01,0.018L5.604,7.398
	L5.597,7.375l-0.02-0.041L5.543,7.296L5.515,7.275L5.479,7.268L5.436,7.26L5.4,7.263l-0.046,0.02l-0.03,0.028L5.296,7.357
	L5.275,7.393l-0.01,0.043L5.258,7.49v0.051L5.26,7.587L5.27,7.64l0.013,0.046l0.023,0.043l0.025,0.028l0.028,0.02L5.4,7.796
	l0.049,0.002l0.048-0.005L5.538,7.77l0.041-0.041l0.025-0.054V7.574H5.439V7.469h0.217v0.049H5.646z"/>
<path fill="#1B5FAA" d="M6.426,7.896L6.35,7.663H6.117L6.043,7.896L5.952,7.857l0.227-0.722l0.056,0.023l0.056-0.023l0.227,0.722
	L6.426,7.896z M6.127,7.623l0.048-0.062h0.146L6.235,7.245L6.127,7.623z"/>
<path fill="#1B5FAA" d="M6.967,7.495L6.913,7.538H6.911l0.107,0.314L6.929,7.898L6.806,7.551H6.648v0.342H6.551V7.202H6.6V7.143
	h0.229H6.86l0.046,0.01l0.043,0.023l0.036,0.041l0.028,0.054l0.01,0.048L6.977,7.334h0.048v0.041l-0.02,0.077L6.967,7.495z
	 M6.65,7.248v0.245l0.031-0.041h0.14h0.01h0.025h0.005L6.87,7.449l0.033-0.031l0.018-0.025l0.01-0.036V7.332L6.926,7.309
	L6.911,7.283l-0.018-0.02l-0.018-0.01L6.852,7.248h-0.02H6.65z"/>
<path fill="#1B5FAA" d="M7.515,7.143v0.104H7.339v0.646H7.242V7.248H7.066V7.143H7.515z"/>
<path fill="#1B5FAA" d="M8.055,7.582L8.09,7.646L8.076,7.661v0.036l-0.01,0.066L8.025,7.821L7.992,7.85L7.957,7.873L7.913,7.888V7.9
	H7.804L7.758,7.89L7.714,7.875L7.681,7.852L7.65,7.829L7.623,7.804L7.6,7.768L7.571,7.712l0.084-0.059l0.013,0.028l0.023,0.038
	l0.015,0.016l0.025,0.02l0.021,0.013l0.028,0.01l0.03,0.008h0.041l0.033-0.008l0.033-0.01l0.021-0.013L7.957,7.74l0.018-0.023
	L7.98,7.681V7.666L7.972,7.653l-0.013-0.02L7.934,7.615L7.898,7.6L7.852,7.587l-0.046-0.01L7.717,7.548l-0.051-0.02L7.625,7.485
	L7.6,7.418L7.594,7.354l0.01-0.061l0.028-0.062l0.043-0.048l0.062-0.028l0.046-0.01L7.824,7.14H7.87l0.041,0.01l0.033,0.01
	l0.048,0.028l0.043,0.03l0.011,0.013L7.979,7.316L7.967,7.291L7.941,7.268L7.911,7.25L7.888,7.242L7.86,7.235H7.829L7.796,7.237
	L7.763,7.245L7.727,7.263l-0.018,0.02L7.696,7.311L7.691,7.339l0.002,0.038l0.01,0.025L7.721,7.42l0.031,0.021l0.077,0.023
	l0.043,0.01l0.053,0.013L7.977,7.51l0.046,0.025L8.055,7.582z"/>
<path fill="#1B5FAA" d="M8.842,7.663v0.051L8.82,7.768L8.791,7.829L8.745,7.877l-0.06,0.018H8.41V7.837H8.361V7.199H8.41V7.14h0.234
	l0.049,0.013l0.043,0.028l0.031,0.031l0.027,0.036l0.014,0.046l0.008,0.043L8.796,7.342L8.818,7.35v0.023L8.805,7.441L8.766,7.495
	L8.783,7.51l0.027,0.043l0.022,0.051L8.842,7.663z M8.66,7.252L8.635,7.248H8.459v0.25L8.49,7.457h0.143h0.008h0.006l0.024-0.01
	l0.024-0.021l0.021-0.028L8.723,7.36l0,0V7.327L8.712,7.301L8.701,7.288L8.684,7.271L8.66,7.252z M8.734,7.722l0.011-0.033V7.673
	L8.74,7.64L8.729,7.615L8.715,7.592L8.691,7.571L8.67,7.561H8.641H8.633H8.459v0.266L8.49,7.786h0.184l0.025-0.008L8.717,7.76
	L8.734,7.722z"/>
<path fill="#1B5FAA" d="M8.898,7.893v-0.75h0.097v0.752H8.898V7.893z"/>
<path fill="#1B5FAA" d="M9.191,7.829l0.033-0.041h0.291v0.105H9.145V7.834H9.098V7.202h0.049V7.143H9.49v0.104H9.191v0.25
	l0.033-0.041h0.221V7.56H9.193v0.268L9.191,7.829L9.191,7.829z"/>
<path fill="#1B5FAA" d="M10.076,7.143v0.752H9.979V7.816L9.945,7.854l-0.25-0.502v0.541H9.6v-0.75h0.098v0.086l0.029-0.041
	L9.98,7.693v-0.55H10.076z"/>
<path fill="#1B5FAA" d="M10.633,7.143v0.752h-0.098V7.816l-0.033,0.038l-0.25-0.502v0.541h-0.096v-0.75h0.096v0.086l0.031-0.041
	l0.252,0.505v-0.55H10.633z"/>
<path fill="#1B5FAA" d="M10.715,7.893v-0.75h0.096v0.752h-0.096V7.893z"/>
<path fill="#1B5FAA" d="M11.348,7.896l-0.076-0.232h-0.232l-0.073,0.232l-0.092-0.039L11.1,7.135l0.058,0.023l0.056-0.023
	l0.229,0.722L11.348,7.896z M11.049,7.623l0.049-0.062h0.146l-0.086-0.316L11.049,7.623z"/>
<path fill="#1B5FAA" d="M11.574,7.829l0.029-0.041h0.287v0.105h-0.367V7.834h-0.049V7.143h0.096v0.686H11.574z"/>
<g>
	<polygon fill="#1B5FAA" points="12.281,7.783 12.299,7.74 12.326,7.702 12.365,7.666 12.408,7.635 12.454,7.61 12.486,7.587 
		12.523,7.561 12.557,7.525 12.59,7.472 12.615,7.416 12.623,7.354 12.617,7.306 12.59,7.225 12.531,7.161 12.454,7.123 
		12.359,7.123 12.277,7.146 12.219,7.184 12.191,7.214 12.25,7.296 12.275,7.271 12.314,7.245 12.37,7.227 12.434,7.227 
		12.477,7.25 12.51,7.283 12.525,7.332 12.527,7.354 12.525,7.38 12.51,7.416 12.486,7.457 12.469,7.475 12.439,7.495 12.41,7.515 
		12.361,7.543 12.311,7.579 12.264,7.625 12.223,7.679 12.193,7.74 12.189,7.768 12.189,7.865 12.223,7.865 12.223,7.903 
		12.617,7.903 12.617,7.796 12.281,7.796 	"/>
	<path fill="#1B5FAA" d="M13.168,7.525L13.168,7.525l0.003,0.039l-0.003,0.033L13.163,7.63l-0.007,0.046L13.141,7.73l-0.031,0.062
		l-0.035,0.041L13.033,7.86l-0.047,0.02l-0.035,0.008l-0.035-0.005L12.88,7.877l-0.03-0.013l-0.031-0.018l-0.026-0.028L12.77,7.793
		l-0.021-0.036l-0.017-0.041l-0.014-0.033l-0.007-0.036L12.707,7.61l-0.006-0.041l-0.002-0.01l0.07-0.008h-0.074V7.515l0.006-0.048
		l0.008-0.051l0.01-0.054l0.014-0.046l0.019-0.046l0.024-0.046l0.033-0.039l0.047-0.033l0.049-0.018l0.035-0.002l0.029,0.002
		l0.041,0.01l0.041,0.025l0.039,0.025l0.027,0.039l0.018,0.038l0.02,0.043l0.013,0.054l0.005,0.048l0.012,0.094L13.168,7.525z
		 M13.07,7.594l0.004-0.033L13.07,7.525V7.477l-0.002-0.036l-0.002-0.039l-0.01-0.036l-0.015-0.041l-0.013-0.028l-0.014-0.018
		l-0.021-0.016l-0.026-0.018L12.945,7.24h-0.014l-0.019,0.002l-0.024,0.01l-0.029,0.021l-0.018,0.023l-0.016,0.028l-0.01,0.041
		l-0.01,0.033l-0.009,0.046l-0.006,0.043L12.79,7.525V7.55h0.002l0.003,0.028L12.8,7.609l0.003,0.028l0.006,0.023l0.01,0.028
		l0.011,0.028l0.011,0.015l0.012,0.013l0.02,0.018l0.018,0.01l0.016,0.008l0.022,0.005l0.019,0.002l0.016-0.002l0.031-0.013
		l0.021-0.018l0.02-0.02l0.018-0.039l0.01-0.036l0.008-0.038L13.07,7.594z"/>
	<path fill="#1B5FAA" d="M13.377,7.199h0.047v0.694h-0.098V7.24H13.25V7.179l0.127-0.036V7.199z"/>
	<path fill="#1B5FAA" d="M13.541,7.75l0.053,0.084l0.077,0.056l0.077,0.01l0.086-0.007L13.9,7.857l0.051-0.063l0.014-0.041
		l0.008-0.059l0.002-0.066l-0.027-0.074L13.9,7.5l0.024-0.028l0.025-0.066l0.008-0.066l-0.017-0.08l-0.035-0.056L13.84,7.163
		l-0.08-0.015l-0.089,0.008L13.6,7.217l-0.039,0.079l-0.002,0.066l0.017,0.071l0.032,0.048l0.014,0.01l-0.038,0.028L13.55,7.582
		l-0.016,0.064L13.541,7.75z M13.648,7.365V7.327l0.018-0.043l0.033-0.031l0.051-0.005l0.057,0.002l0.037,0.031l0.014,0.018
		l0.009,0.046l-0.007,0.028l-0.012,0.03l-0.016,0.018l-0.031,0.028l-0.02,0.005h-0.004l0,0l-0.012,0.005l0,0l-0.037-0.005
		l-0.027-0.015l-0.03-0.028L13.658,7.39L13.648,7.365L13.648,7.365z M13.633,7.63l0.018-0.033l0.021-0.02l0.021-0.01h0.096
		l0.027,0.008l0.033,0.018l0.025,0.025l0.014,0.021v0.043L13.87,7.735l-0.026,0.03l-0.037,0.021l-0.062,0.005l-0.05-0.008
		L13.652,7.75l-0.027-0.043L13.62,7.656L13.633,7.63z"/>
</g>
</svg>
