<?xml version="1.0" encoding="utf-8"?>
<!-- Generator: Adobe Illustrator 15.0.0, SVG Export Plug-In . SVG Version: 6.00 Build 0)  -->
<!DOCTYPE svg PUBLIC "-//W3C//DTD SVG 1.1//EN" "http://www.w3.org/Graphics/SVG/1.1/DTD/svg11.dtd">
<svg version="1.1" id="Calque_1" xmlns="http://www.w3.org/2000/svg" xmlns:xlink="http://www.w3.org/1999/xlink" x="0px" y="0px"
	 width="15px" height="15px" viewBox="0 0 15 15" enable-background="new 0 0 15 15" xml:space="preserve">
<g>
	<path fill="#1B5FAA" d="M1.97,7.135L1.79,7.982L1.719,7.961L1.646,7.982l-0.138-0.76L1.37,7.982L1.299,7.961L1.228,7.982
		l-0.18-0.847l0.111-0.033L1.3,7.857l0.14-0.755l0.069,0.021l0.069-0.021l0.141,0.755L1.86,7.102L1.97,7.135z"/>
	<path fill="#1B5FAA" d="M2.5,7.985L2.41,7.712H2.138L2.051,7.985L1.943,7.94l0.266-0.847L2.275,7.12l0.066-0.027L2.608,7.94
		L2.5,7.985z M2.15,7.662L2.207,7.59h0.171L2.275,7.219L2.15,7.662z"/>
	<path fill="#1B5FAA" d="M3.209,7.099v0.883H3.096V7.889L3.057,7.934l-0.293-0.59v0.635H2.65v-0.88h0.114v0.102L2.8,7.153
		l0.296,0.593V7.099H3.209z"/>
	<path fill="#1B5FAA" d="M3.91,7.434l0.012,0.12H3.916v0.024L3.901,7.677L3.874,7.751L3.826,7.85L3.76,7.913L3.691,7.955
		L3.629,7.973L3.605,7.976H3.359V7.907H3.302V7.165h0.057V7.096h0.242L3.67,7.105l0.065,0.033l0.051,0.045L3.84,7.252l0.04,0.081
		L3.91,7.434z M3.802,7.566V7.515L3.796,7.458L3.778,7.374L3.751,7.317L3.716,7.27l-0.03-0.027l-0.04-0.018L3.599,7.219h-0.18v0.683
		l0.036-0.048h0.144h0.012l0.042-0.012l0.045-0.03L3.74,7.77l0.033-0.069L3.791,7.65L3.802,7.566z"/>
	<path fill="#1B5FAA" d="M4.099,7.907l0.039-0.048h0.341v0.123H4.042V7.913H3.985V7.167h0.057V7.099h0.407v0.123h-0.35v0.293
		l0.039-0.048h0.261V7.59H4.102v0.317H4.099z"/>
	<path fill="#1B5FAA" d="M5.06,7.515L4.997,7.566H4.994L5.12,7.934L5.015,7.988l-0.141-0.41H4.688v0.401H4.575V7.167h0.057V7.099
		h0.27h0.036l0.054,0.012l0.051,0.027l0.042,0.048l0.033,0.063L5.13,7.306L5.075,7.323h0.057v0.048l-0.024,0.09L5.06,7.515z
		 M4.688,7.222v0.287l0.036-0.048h0.165h0.012h0.03h0.006l0.009-0.003l0.039-0.036l0.021-0.03L5.018,7.35V7.32L5.012,7.293
		l-0.018-0.03L4.973,7.24L4.952,7.228L4.925,7.222H4.901H4.688z"/>
	<path fill="#1B5FAA" d="M5.18,7.982V7.099h0.114v0.883H5.18z"/>
	<path fill="#1B5FAA" d="M5.97,7.099v0.883H5.856V7.889L5.817,7.934l-0.293-0.59v0.635H5.41v-0.88h0.114v0.102L5.56,7.153
		l0.296,0.593V7.099H5.97z"/>
	<path fill="#1B5FAA" d="M6.626,7.539H6.68v0.218L6.62,7.856L6.551,7.928L6.47,7.973L6.383,7.985L6.299,7.979l-0.075-0.03
		L6.174,7.91L6.126,7.856L6.09,7.793L6.063,7.719L6.048,7.635L6.042,7.563V7.548H6.03l0.024-0.141l0.021-0.078l0.039-0.068
		l0.048-0.06l0.057-0.054l0.086-0.036l0.072-0.006l0.069,0.012l0.062,0.015l0.06,0.045l0.06,0.066l0.033,0.062l0.012,0.021
		L6.578,7.398L6.569,7.371L6.545,7.323L6.506,7.278L6.473,7.254L6.431,7.246L6.38,7.236L6.338,7.24L6.284,7.264L6.249,7.296
		L6.216,7.35L6.191,7.392L6.18,7.443L6.171,7.506v0.06L6.174,7.62l0.012,0.063l0.015,0.054l0.027,0.051l0.03,0.033l0.033,0.024
		l0.048,0.021l0.057,0.003l0.057-0.006L6.5,7.835l0.048-0.048l0.03-0.063v-0.12H6.383V7.47h0.254v0.069H6.626z"/>
	<path fill="#1B5FAA" d="M7.542,7.985l-0.09-0.272H7.18L7.093,7.985L6.985,7.94l0.267-0.847L7.317,7.12l0.066-0.027L7.65,7.94
		L7.542,7.985z M7.191,7.662L7.249,7.59h0.17L7.314,7.219L7.191,7.662z"/>
	<path fill="#1B5FAA" d="M8.177,7.515L8.113,7.566H8.111l0.125,0.368L8.132,7.988l-0.141-0.41H7.805v0.401H7.691V7.167h0.057V7.099
		h0.27h0.035l0.055,0.012l0.051,0.027l0.043,0.048l0.031,0.063l0.014,0.057L8.191,7.323h0.057v0.048l-0.023,0.09L8.177,7.515z
		 M7.805,7.222v0.287l0.036-0.048h0.165h0.012h0.03h0.007l0.008-0.003l0.039-0.036l0.021-0.03L8.135,7.35V7.32L8.129,7.293
		l-0.018-0.03L8.09,7.24L8.068,7.228L8.042,7.222H8.018H7.805z"/>
	<path fill="#1B5FAA" d="M8.82,7.099v0.123H8.613v0.757H8.5V7.222H8.293V7.099H8.82z"/>
	<path fill="#1B5FAA" d="M9.452,7.614l0.042,0.075L9.479,7.707v0.042L9.467,7.826L9.419,7.895L9.381,7.928L9.338,7.955L9.287,7.973
		v0.015H9.158L9.105,7.976L9.055,7.958L9.016,7.931L8.979,7.904l-0.031-0.03L8.922,7.829L8.889,7.764l0.101-0.069l0.015,0.033
		l0.025,0.045l0.02,0.018l0.03,0.024L9.102,7.83l0.033,0.012L9.171,7.85h0.048l0.039-0.009l0.039-0.012L9.32,7.814l0.021-0.018
		L9.361,7.77l0.007-0.042V7.709L9.359,7.695L9.344,7.671L9.314,7.65L9.271,7.632L9.219,7.617L9.164,7.605L9.061,7.572L9,7.548
		L8.952,7.497l-0.03-0.078L8.916,7.344l0.012-0.072L8.961,7.2l0.051-0.057L9.084,7.11l0.055-0.012l0.047-0.006H9.24l0.047,0.012
		l0.039,0.012L9.383,7.15l0.051,0.048l0.014,0.015L9.368,7.312l-0.015-0.03l-0.03-0.027L9.287,7.233L9.26,7.225L9.229,7.216H9.191
		L9.152,7.219L9.113,7.228L9.072,7.249L9.051,7.272L9.036,7.305L9.029,7.338l0.004,0.045l0.012,0.03l0.021,0.021l0.035,0.024
		l0.09,0.027l0.051,0.012l0.062,0.015l0.061,0.027l0.054,0.03L9.452,7.614z"/>
	<path fill="#1B5FAA" d="M10.377,7.709v0.06l-0.023,0.063l-0.035,0.072l-0.055,0.057l-0.068,0.021H9.871V7.913H9.814V7.167h0.057
		V7.099h0.275l0.057,0.015l0.051,0.033l0.037,0.036l0.032,0.042l0.015,0.054l0.01,0.051l-0.023,0.006l0.025,0.009v0.027
		l-0.018,0.081l-0.045,0.063l0.021,0.018l0.032,0.051l0.026,0.06L10.377,7.709z M10.164,7.23l-0.029-0.006H9.928v0.293L9.964,7.47
		h0.168h0.009h0.006l0.03-0.012l0.03-0.024l0.023-0.033l0.006-0.045l0,0V7.317l-0.012-0.03l-0.013-0.015l-0.021-0.021L10.164,7.23z
		 M10.252,7.781l0.012-0.039V7.725l-0.006-0.039l-0.012-0.03l-0.02-0.027l-0.025-0.024l-0.024-0.012h-0.036h-0.009H9.928v0.312
		l0.036-0.048h0.216l0.029-0.009l0.021-0.021L10.252,7.781z"/>
	<path fill="#1B5FAA" d="M10.443,7.982V7.099h0.113v0.883H10.443z"/>
	<path fill="#1B5FAA" d="M10.787,7.907l0.039-0.048h0.342v0.123h-0.436V7.913h-0.057V7.167h0.057V7.099h0.404v0.123h-0.351v0.293
		l0.039-0.048h0.261V7.59H10.79v0.317H10.787z"/>
	<path fill="#1B5FAA" d="M11.826,7.099v0.883h-0.113V7.889l-0.039,0.045l-0.293-0.59v0.635h-0.113v-0.88h0.113v0.102l0.035-0.048
		l0.297,0.593V7.099H11.826z"/>
	<path fill="#1B5FAA" d="M12.479,7.099v0.883h-0.112V7.889l-0.039,0.045l-0.293-0.59v0.635H11.92v-0.88h0.114v0.102l0.034-0.048
		l0.298,0.593V7.099H12.479z"/>
	<path fill="#1B5FAA" d="M12.574,7.982V7.099h0.113v0.883H12.574z"/>
	<path fill="#1B5FAA" d="M13.316,7.985l-0.09-0.272h-0.271l-0.087,0.272L12.76,7.94l0.268-0.847l0.065,0.027l0.065-0.027
		l0.268,0.847L13.316,7.985z M12.967,7.662l0.057-0.072h0.172L13.09,7.219L12.967,7.662z"/>
	<path fill="#1B5FAA" d="M13.584,7.907l0.035-0.048h0.336v0.123h-0.432V7.913h-0.058V7.099h0.114v0.809L13.584,7.907L13.584,7.907z"
		/>
</g>
</svg>
