<?xml version="1.0" encoding="utf-8"?>
<!-- Generator: Adobe Illustrator 15.0.0, SVG Export Plug-In . SVG Version: 6.00 Build 0)  -->
<!DOCTYPE svg PUBLIC "-//W3C//DTD SVG 1.1//EN" "http://www.w3.org/Graphics/SVG/1.1/DTD/svg11.dtd">
<svg version="1.1" id="Calque_1" xmlns="http://www.w3.org/2000/svg" xmlns:xlink="http://www.w3.org/1999/xlink" x="0px" y="0px"
	 width="15px" height="15px" viewBox="0 0 15 15" enable-background="new 0 0 15 15" xml:space="preserve">
<g>
	<path fill="#1B5FAA" d="M6.985,6.194L6.348,9.199L6.093,9.124L5.839,9.199L5.35,6.502L4.862,9.199L4.607,9.124L4.353,9.199
		L3.715,6.194l0.393-0.117l0.499,2.674l0.499-2.674L5.35,6.152l0.245-0.074l0.499,2.674l0.499-2.674L6.985,6.194z"/>
	<path fill="#1B5FAA" d="M8.864,9.209L8.546,8.243H7.58L7.272,9.209L6.89,9.05l0.945-3.004l0.233,0.095l0.232-0.095L9.246,9.05
		L8.864,9.209z M7.622,8.073l0.202-0.255H8.43L8.068,6.502L7.622,8.073z"/>
	<path fill="#1B5FAA" d="M11.38,8.232v0.213l-0.085,0.223l-0.127,0.254l-0.191,0.202l-0.244,0.075H9.598V8.955H9.395V6.311h0.203
		V6.067h0.977l0.201,0.053l0.181,0.117l0.128,0.127L11.2,6.512l0.053,0.191l0.033,0.181L11.2,6.905l0.096,0.032v0.095l-0.063,0.287
		l-0.158,0.223l0.074,0.063l0.117,0.181l0.096,0.212L11.38,8.232z M10.637,6.534l-0.104-0.021H9.799v1.041l0.127-0.17h0.594h0.032
		h0.021l0.106-0.042l0.104-0.085L10.87,7.14l0.021-0.159l0,0V6.842L10.85,6.736l-0.043-0.053l-0.074-0.074L10.637,6.534z
		 M10.945,8.486l0.041-0.137V8.285l-0.021-0.139l-0.042-0.105l-0.064-0.095l-0.096-0.085L10.68,7.818h-0.128H10.52H9.799v1.104
		l0.127-0.17h0.764l0.107-0.031l0.074-0.074L10.945,8.486z"/>
</g>
</svg>
