<?xml version="1.0" encoding="utf-8"?>
<!-- Generator: Adobe Illustrator 15.0.0, SVG Export Plug-In . SVG Version: 6.00 Build 0)  -->
<!DOCTYPE svg PUBLIC "-//W3C//DTD SVG 1.1//EN" "http://www.w3.org/Graphics/SVG/1.1/DTD/svg11.dtd">
<svg version="1.1" id="Calque_1" xmlns="http://www.w3.org/2000/svg" xmlns:xlink="http://www.w3.org/1999/xlink" x="0px" y="0px"
	 width="15px" height="15px" viewBox="0 0 15 15" enable-background="new 0 0 15 15" xml:space="preserve">
<g>
	<polygon fill="#1B5FAA" points="8.178,8.283 8.23,8.171 8.296,8.072 8.395,7.98 8.507,7.901 8.625,7.835 8.711,7.776 8.803,7.71 
		8.889,7.619 8.974,7.48 9.046,7.335 9.059,7.178 9.046,7.053 8.974,6.842 8.822,6.678 8.625,6.579 8.389,6.579 8.178,6.638 
		8.026,6.737 7.947,6.822 8.105,7.026 8.164,6.96 8.264,6.895 8.414,6.849 8.572,6.849 8.684,6.908 8.77,6.994 8.816,7.119 
		8.822,7.178 8.816,7.244 8.77,7.335 8.711,7.441 8.664,7.487 8.592,7.54 8.514,7.592 8.389,7.665 8.257,7.757 8.132,7.875 
		8.026,8.014 7.96,8.171 7.941,8.244 7.941,8.494 8.026,8.494 8.026,8.592 9.053,8.592 9.053,8.316 8.178,8.316 	"/>
	<path fill="#1B5FAA" d="M10.467,7.619L10.467,7.619l0.007,0.099l-0.007,0.085l-0.013,0.085l-0.021,0.119l-0.039,0.138l-0.078,0.158
		l-0.093,0.105L10.118,8.48L10,8.533l-0.092,0.02L9.816,8.539L9.724,8.526L9.645,8.494L9.566,8.447L9.493,8.375l-0.06-0.066
		L9.382,8.217l-0.04-0.105L9.309,8.026l-0.02-0.092L9.276,7.835L9.264,7.73L9.257,7.704l0.185-0.02H9.25V7.592l0.014-0.125
		l0.02-0.132l0.025-0.138l0.033-0.118L9.389,6.96l0.065-0.118l0.085-0.099l0.119-0.086l0.125-0.046l0.092-0.006l0.079,0.006
		l0.104,0.026l0.105,0.066l0.1,0.065l0.072,0.099l0.046,0.099l0.046,0.112l0.033,0.138v0.151l0.025,0.243L10.467,7.619z
		 M10.217,7.796l0.007-0.085l-0.007-0.092V7.494l-0.006-0.092l-0.007-0.099L10.178,7.21l-0.033-0.105l-0.033-0.073l-0.032-0.046
		l-0.06-0.04L9.954,6.901l-0.06-0.013L9.855,6.882L9.809,6.888L9.743,6.915L9.671,6.967L9.625,7.026L9.586,7.099L9.559,7.204
		L9.533,7.29l-0.02,0.118L9.5,7.52L9.493,7.619v0.072H9.5l0.007,0.072L9.52,7.842l0.007,0.072l0.013,0.059l0.027,0.072l0.025,0.073
		l0.026,0.039l0.033,0.033l0.046,0.045l0.046,0.027l0.04,0.02l0.059,0.013l0.047,0.007l0.039-0.007l0.079-0.032l0.06-0.047
		l0.045-0.053l0.047-0.098l0.025-0.093l0.021-0.099L10.217,7.796z"/>
	<path fill="#1B5FAA" d="M11.007,6.776h0.118v1.79h-0.25V6.882h-0.197V6.724l0.329-0.092V6.776z"/>
	<path fill="#1B5FAA" d="M11.428,8.197l0.139,0.217l0.197,0.145l0.197,0.027l0.223-0.02l0.172-0.093l0.131-0.165l0.033-0.104
		l0.02-0.151l0.007-0.171l-0.072-0.191l-0.118-0.138l0.065-0.072l0.065-0.171l0.021-0.171l-0.046-0.204L12.368,6.79l-0.171-0.105
		l-0.204-0.04l-0.229,0.02l-0.185,0.158L11.48,7.026l-0.007,0.171l0.04,0.185l0.085,0.125l0.033,0.026l-0.099,0.073L11.447,7.77
		l-0.039,0.165L11.428,8.197z M11.704,7.204V7.105l0.046-0.112l0.086-0.079l0.131-0.013l0.145,0.006l0.1,0.079l0.032,0.046
		l0.021,0.119L12.25,7.224l-0.033,0.079l-0.039,0.046l-0.079,0.072l-0.053,0.013h-0.007l0,0l-0.032,0.013l0,0l-0.093-0.013
		l-0.072-0.04l-0.078-0.072L11.73,7.27L11.704,7.204L11.704,7.204z M11.664,7.888l0.047-0.085l0.053-0.053l0.059-0.026h0.244
		l0.072,0.02l0.085,0.046l0.065,0.066l0.033,0.052V8.02l-0.046,0.139l-0.065,0.078l-0.1,0.053l-0.157,0.014l-0.125-0.02
		l-0.112-0.086l-0.072-0.111l-0.013-0.132L11.664,7.888z"/>
</g>
<path fill="#1B5FAA" d="M4.329,6.691L3.934,8.553L3.776,8.507L3.618,8.553L3.316,6.882L3.013,8.553L2.855,8.507L2.697,8.553
	L2.303,6.691l0.243-0.072l0.31,1.658l0.309-1.658l0.151,0.046l0.151-0.046l0.309,1.658l0.309-1.658L4.329,6.691z"/>
<path fill="#1B5FAA" d="M5.493,8.553L5.296,7.954H4.697l-0.19,0.599L4.27,8.454l0.586-1.862L5,6.651l0.145-0.059L5.73,8.454
	L5.493,8.553z M4.724,7.849l0.125-0.158h0.375L5,6.875L4.724,7.849z"/>
<path fill="#1B5FAA" d="M7.053,7.954v0.132L7,8.224L6.921,8.382L6.803,8.507L6.651,8.553H5.947V8.401H5.822V6.757h0.125V6.605h0.605
	l0.125,0.033L6.79,6.71L6.868,6.79l0.073,0.092L6.974,7l0.02,0.112L6.941,7.125L7,7.145v0.06L6.96,7.382L6.862,7.52l0.046,0.04
	L6.98,7.671L7.04,7.803L7.053,7.954z M6.592,6.895L6.526,6.882H6.072v0.645l0.079-0.105H6.52h0.02h0.013l0.065-0.026l0.066-0.052
	L6.737,7.27L6.75,7.171l0,0V7.085L6.724,7.02L6.697,6.987L6.651,6.941L6.592,6.895z M6.783,8.105L6.809,8.02V7.98L6.796,7.895
	L6.77,7.829L6.73,7.77l-0.06-0.052L6.618,7.691H6.54H6.52H6.072v0.684L6.151,8.27h0.474l0.066-0.02l0.046-0.046L6.783,8.105z"/>
</svg>
