<?xml version="1.0" encoding="utf-8"?>
<!-- Generator: Adobe Illustrator 15.0.0, SVG Export Plug-In . SVG Version: 6.00 Build 0)  -->
<!DOCTYPE svg PUBLIC "-//W3C//DTD SVG 1.1//EN" "http://www.w3.org/Graphics/SVG/1.1/DTD/svg11.dtd">
<svg version="1.1"
	 id="svg2" xmlns:svg="http://www.w3.org/2000/svg" xmlns:rdf="http://www.w3.org/1999/02/22-rdf-syntax-ns#" xmlns:cc="http://creativecommons.org/ns#" xmlns:dc="http://purl.org/dc/elements/1.1/"
	 xmlns="http://www.w3.org/2000/svg" xmlns:xlink="http://www.w3.org/1999/xlink" x="0px" y="0px" width="158.58px" height="80px"
	 viewBox="192.592 97.031 158.58 80" enable-background="new 192.592 97.031 158.58 80" xml:space="preserve">
<g id="g10" transform="matrix(1.3333333,0,0,-1.3333333,0,274.06667)">
	<g id="g12" transform="scale(0.1)">
		<path id="path14" fill="#1B5FAA" d="M2039.121,1026.211c0,164.22-133.125,297.341-297.341,297.341
			c-164.22,0-297.338-133.121-297.338-297.341c0-164.209,133.118-297.334,297.338-297.334
			C1905.996,728.877,2039.121,862.002,2039.121,1026.211"/>
		<path id="path16" fill="#FFFFFF" d="M1641.16,931.421c0,3.369-0.905,6.182-2.721,8.452c-1.816,2.263-4.149,3.398-6.995,3.398
			h-31.271v-23.123h29.912c3.105,0,5.735,0.974,7.866,2.922C1640.087,925.013,1641.16,927.789,1641.16,931.421 M1600.174,993.97
			v-21.182h25.833c2.589,0,4.951,0.718,7.09,2.146c2.139,1.421,3.212,4.27,3.212,8.547c0,3.75-0.916,6.445-2.725,8.057
			c-1.813,1.619-3.955,2.432-6.412,2.432H1600.174z M1679.619,923.643c0-6.211-1.296-11.558-3.885-16.018
			c-2.596-4.468-6.152-8.137-10.682-10.979c-4.534-2.849-9.814-4.951-15.831-6.306c-6.024-1.362-12.404-2.043-19.135-2.043h-67.793
			v137.915h80.032c4.786,0,9.13-1.036,13.015-3.106c3.882-2.065,7.189-4.753,9.902-8.057c2.725-3.303,4.827-7.068,6.313-11.272
			c1.49-4.211,2.241-8.518,2.241-12.913c0-6.482-1.655-12.671-4.958-18.552c-3.303-5.896-8.251-10.334-14.861-13.301
			c7.899-2.336,14.15-6.387,18.746-12.151C1677.316,941.089,1679.619,933.355,1679.619,923.643"/>
		<path id="path18" fill="#FFFFFF" d="M1716.819,1026.211l25.063-43.506l25.052,43.506h40.792l-46.036-69.932l44.484-67.983h-40.792
			l-23.5,41.572l-23.503-41.572h-40.994l44.487,67.983l-46.04,69.932H1716.819L1716.819,1026.211"/>
		<path id="path20" fill="#FFFFFF" d="M1820.841,888.296v137.922h37.881V921.321h62.549v-33.025H1820.841L1820.841,888.296"/>
		<path id="path22" fill="#FFFFFF" d="M1849.765,1097.718c0,0.582-0.011,1.161-0.026,1.747
			c-0.615,39.229-22.159,73.378-53.958,91.776l-0.011-0.007c-2.999,1.736-6.295,2.505-9.521,2.402
			c-12.147,0-22.189-22.207-25.682-25.02c-0.011-0.004-0.022-0.022-0.04-0.029c-0.886-0.703-1.974-1.333-3.329-1.879
			c-1.121-0.45-2.413-0.846-3.907-1.161c-2.996,0-5.574,0.857-6.797,2.098c-0.487,0.487-0.751,1.036-0.751,1.615v1.051
			c0.586,0.179,1.161,0.403,1.721,0.663c0.037,0.015,0.077,0.033,0.125,0.051c0.154,0.077,0.311,0.154,0.461,0.234
			c0.055,0.029,0.103,0.051,0.161,0.081c0.15,0.084,0.293,0.165,0.443,0.253c0.048,0.026,0.088,0.055,0.143,0.077
			c0.15,0.095,0.304,0.183,0.461,0.286l0.007,0.007c0.498,0.33,0.978,0.681,1.439,1.066c0.059,0.04,0.114,0.095,0.165,0.135
			c0.125,0.099,0.234,0.205,0.352,0.311c0.066,0.051,0.128,0.11,0.187,0.168c0.114,0.106,0.223,0.212,0.33,0.319
			c0.062,0.062,0.128,0.121,0.194,0.19c0.103,0.106,0.209,0.212,0.308,0.322c0.059,0.066,0.125,0.135,0.183,0.201
			c0.194,0.216,0.381,0.432,0.557,0.656c0.059,0.07,0.125,0.135,0.176,0.212c0.077,0.103,0.157,0.209,0.242,0.315
			c0.062,0.095,0.139,0.187,0.209,0.286c0.077,0.106,0.146,0.212,0.223,0.319c0.066,0.106,0.139,0.205,0.205,0.311
			c0.07,0.103,0.139,0.209,0.205,0.315c0.07,0.11,0.139,0.227,0.205,0.341c0.066,0.106,0.128,0.205,0.187,0.311
			c0.077,0.132,0.146,0.267,0.216,0.403c0.055,0.095,0.103,0.183,0.146,0.271c0.117,0.22,0.231,0.45,0.337,0.674
			c0.033,0.073,0.07,0.15,0.103,0.238c0.073,0.157,0.143,0.319,0.212,0.487c0.04,0.095,0.077,0.187,0.117,0.282
			c0.059,0.15,0.125,0.311,0.183,0.458c0.033,0.099,0.07,0.198,0.103,0.304c0.059,0.157,0.106,0.315,0.165,0.472
			c0.029,0.095,0.066,0.19,0.088,0.293c0.059,0.172,0.106,0.359,0.157,0.546c0.026,0.077,0.048,0.146,0.066,0.231
			c0.07,0.264,0.135,0.52,0.194,0.791c0.011,0.04,0.018,0.07,0.022,0.103c0.048,0.234,0.099,0.476,0.143,0.71
			c0.015,0.088,0.029,0.176,0.04,0.264c0.033,0.187,0.062,0.374,0.088,0.568c0.018,0.095,0.029,0.194,0.033,0.293
			c0.026,0.183,0.048,0.37,0.066,0.557c0.011,0.099,0.022,0.201,0.022,0.3c0.018,0.205,0.037,0.399,0.044,0.608
			c0.004,0.084,0.011,0.165,0.015,0.242c0.007,0.286,0.018,0.579,0.018,0.872c0,9.884-6.837,17.908-15.293,17.996
			c-0.048,0-0.088,0-0.135,0l0,0c-0.04,0-0.088,0-0.132,0c-8.456-0.088-15.293-8.112-15.293-17.996c0-0.293,0.004-0.586,0.022-0.872
			c0-0.077,0.007-0.157,0.011-0.242c0.007-0.209,0.026-0.403,0.04-0.608c0.007-0.099,0.015-0.201,0.026-0.3
			c0.018-0.187,0.04-0.374,0.059-0.557c0.018-0.099,0.022-0.198,0.04-0.293c0.022-0.194,0.051-0.381,0.088-0.568
			c0.018-0.088,0.029-0.176,0.04-0.264c0.04-0.234,0.095-0.476,0.146-0.71c0-0.033,0.011-0.062,0.011-0.103
			c0.059-0.271,0.132-0.527,0.201-0.791c0.018-0.084,0.04-0.154,0.062-0.231c0.048-0.187,0.106-0.374,0.161-0.546
			c0.029-0.103,0.059-0.198,0.092-0.293c0.055-0.157,0.099-0.315,0.157-0.472c0.037-0.106,0.073-0.205,0.106-0.304
			c0.059-0.146,0.117-0.308,0.183-0.458c0.033-0.095,0.077-0.187,0.117-0.282c0.062-0.168,0.139-0.33,0.209-0.487
			c0.037-0.088,0.073-0.165,0.106-0.238c0.106-0.223,0.216-0.454,0.333-0.674c0.048-0.088,0.095-0.176,0.146-0.271
			c0.073-0.135,0.143-0.271,0.22-0.403c0.062-0.106,0.121-0.205,0.187-0.311c0.07-0.114,0.135-0.231,0.205-0.341
			c0.062-0.106,0.135-0.212,0.205-0.315c0.062-0.106,0.139-0.205,0.205-0.311c0.077-0.106,0.15-0.212,0.223-0.319
			c0.07-0.099,0.146-0.19,0.216-0.286c0.077-0.106,0.15-0.212,0.234-0.315c0.059-0.077,0.117-0.143,0.176-0.212
			c0.179-0.223,0.363-0.439,0.549-0.656c0.066-0.066,0.125-0.135,0.187-0.201c0.106-0.11,0.205-0.216,0.311-0.322
			c0.066-0.07,0.128-0.128,0.194-0.19c0.106-0.106,0.216-0.212,0.33-0.319c0.062-0.059,0.121-0.117,0.187-0.168
			c0.117-0.106,0.227-0.212,0.344-0.311c0.059-0.04,0.117-0.095,0.172-0.135c0.461-0.385,0.941-0.736,1.439-1.066l0.011-0.007
			c0.154-0.103,0.308-0.19,0.458-0.286c0.055-0.022,0.095-0.051,0.143-0.077c0.15-0.088,0.297-0.168,0.443-0.253
			c0.055-0.029,0.106-0.051,0.165-0.081c0.146-0.081,0.3-0.157,0.458-0.234c0.048-0.018,0.088-0.037,0.128-0.051
			c0.557-0.26,1.132-0.483,1.718-0.663v-1.051c0-0.579-0.271-1.128-0.751-1.615c-1.223-1.241-3.801-2.098-6.786-2.098h-0.004
			c-1.509,0.315-2.798,0.71-3.915,1.161c-1.355,0.546-2.443,1.176-3.329,1.879c-0.018,0.007-0.029,0.026-0.04,0.029
			c-3.494,2.812-13.535,25.02-25.682,25.02c-3.23,0.103-6.522-0.667-9.529-2.402l-0.004,0.007
			c-31.798-18.398-53.339-52.548-53.965-91.776c-0.007-0.586-0.026-1.165-0.026-1.747c0-0.557,0.007-1.106,0.018-1.663
			c0-0.304-0.018-0.615-0.018-0.927c0-1.934,0.114-3.86,0.322-5.76c0.117-1.556,0.278-3.098,0.458-4.633h0.007
			c0.088-0.066,0.179-0.114,0.275-0.165c-0.04,0.245-0.081,0.487-0.125,0.732c0.048-0.253,0.103-0.505,0.154-0.754
			c0.275-0.154,0.564-0.3,0.842-0.428c4.032-1.769,8.855-0.37,11.257,3.468c1.545,2.479,1.74,5.409,0.791,7.939
			c0.176,0.099,0.363,0.198,0.546,0.304c0.41-0.381,0.861-0.725,1.348-1.029c4.219-2.637,9.767-1.355,12.396,2.856
			c1.421,2.263,1.707,4.918,1.011,7.291c0.267,0.176,0.538,0.355,0.813,0.531c0.275-0.209,0.564-0.421,0.868-0.615
			c4.211-2.629,9.76-1.348,12.396,2.867c1.461,2.336,1.718,5.087,0.938,7.518c0.223,0.157,0.454,0.315,0.674,0.48
			c0.337-0.289,0.699-0.557,1.08-0.791c4.211-2.633,9.767-1.355,12.396,2.86c1.648,2.629,1.765,5.786,0.593,8.423
			c0.106,0.084,0.212,0.172,0.315,0.26c0.483-0.516,1.033-0.985,1.648-1.388c0.048-0.026,0.088-0.059,0.135-0.088
			c4.211-2.633,9.767-1.348,12.396,2.864c1.443,2.303,1.714,4.999,0.974,7.405c0.282,0.135,0.564,0.278,0.842,0.425
			c0.278-0.22,0.564-0.428,0.875-0.623c3.431-2.15,7.756-1.688,10.664,0.831c1.897-3.878,3.098-8.789,3.098-11.642
			c0-2.952-3.812-15.89-3.812-15.89c-0.905-4.764,21.801-24.276,21.812-24.258l0,0c0.015-0.018,22.723,19.493,21.815,24.258
			c0,0-3.812,12.938-3.812,15.89c0,2.853,1.201,7.764,3.098,11.642c2.911-2.52,7.229-2.981,10.671-0.831
			c0.304,0.194,0.59,0.403,0.864,0.623c0.282-0.146,0.564-0.289,0.846-0.425c-0.732-2.406-0.469-5.101,0.967-7.405
			c2.637-4.211,8.192-5.497,12.404-2.864c0.048,0.029,0.088,0.062,0.135,0.088c0.615,0.403,1.161,0.872,1.644,1.388
			c0.106-0.088,0.212-0.176,0.311-0.26c-1.165-2.637-1.047-5.793,0.597-8.423c2.633-4.215,8.188-5.493,12.4-2.86
			c0.388,0.234,0.74,0.502,1.077,0.791c0.223-0.165,0.454-0.322,0.674-0.48c-0.776-2.432-0.52-5.182,0.938-7.518
			c2.633-4.215,8.188-5.497,12.4-2.867c0.304,0.194,0.593,0.406,0.868,0.615c0.275-0.176,0.546-0.355,0.813-0.531
			c-0.696-2.373-0.41-5.028,1.007-7.291c2.633-4.211,8.188-5.493,12.4-2.856c0.487,0.304,0.938,0.648,1.348,1.029
			c0.187-0.106,0.37-0.205,0.546-0.304c-0.948-2.531-0.758-5.46,0.791-7.939c2.402-3.838,7.229-5.237,11.254-3.468
			c0.289,0.128,0.571,0.275,0.846,0.428c0.051,0.249,0.099,0.502,0.15,0.754c-0.04-0.245-0.081-0.487-0.121-0.732
			c0.092,0.051,0.187,0.099,0.275,0.165l0,0c0.187,1.534,0.344,3.076,0.461,4.633c0.212,1.901,0.319,3.827,0.319,5.76
			c0,0.311-0.011,0.623-0.018,0.927C1849.757,1096.612,1849.765,1097.161,1849.765,1097.718"/>
		<path id="path24" fill="#FFFFFF" d="M2633.793,1026.219c0,164.213-133.125,297.338-297.341,297.338
			c-164.209,0-297.33-133.125-297.33-297.338c0-164.216,133.121-297.341,297.33-297.341
			C2500.668,728.877,2633.793,862.002,2633.793,1026.219"/>
		<path id="path26" fill="#1B5FAA" d="M2136.933,1038.772v68.903h18.926v-52.408h31.238v-16.494H2136.933"/>
		<path id="path28" fill="#1B5FAA" d="M2220.67,1087.977l-6.394-23.101h12.517L2220.67,1087.977z M2187.301,1038.772l25.723,68.903
			h15.322l25.62-68.903h-19.995l-4.167,13.491h-18.34l-4.08-13.491H2187.301"/>
		<path id="path30" fill="#1B5FAA" d="M2287.833,1107.675l13.491-45.128l13.286,45.128h19.9l-25.327-68.903h-15.725l-25.62,68.903
			H2287.833"/>
		<path id="path32" fill="#1B5FAA" d="M2339.652,1038.772v68.903h18.918v-68.903H2339.652"/>
		<path id="path34" fill="#1B5FAA" d="M2370.414,1038.772v68.903h18.918v-52.408h31.252v-16.494H2370.414"/>
		<path id="path36" fill="#1B5FAA" d="M2427.477,1038.772v68.903h18.911v-52.408h31.252v-16.494H2427.477"/>
		<path id="path38" fill="#1B5FAA" d="M2533.62,1055.267v-16.494h-49.102v68.903h48.237v-16.501h-29.312v-9.697h25.049v-15.333
			h-25.049v-10.876H2533.62"/>
		<path id="path40" fill="#1B5FAA" d="M2178.952,982.749c0,2.651-0.352,5.076-1.062,7.28c-0.718,2.205-1.736,4.08-3.062,5.625
			c-1.326,1.56-2.952,2.769-4.9,3.647c-1.934,0.864-4.109,1.311-6.504,1.311h-7.566v-35.911h7.566c2.461,0,4.666,0.447,6.599,1.362
			c1.948,0.901,3.574,2.168,4.9,3.772c1.326,1.633,2.329,3.53,3.01,5.735C2178.615,977.769,2178.952,980.164,2178.952,982.749
			L2178.952,982.749z M2136.933,948.208v68.892h26.492c5.698,0,10.715-0.901,15.037-2.71c4.336-1.816,7.961-4.277,10.876-7.383
			c2.908-3.105,5.112-6.738,6.599-10.906c1.487-4.182,2.234-8.628,2.234-13.352c0-5.237-0.828-9.983-2.468-14.209
			c-1.655-4.248-4.006-7.866-7.046-10.876c-3.032-3.003-6.687-5.332-10.964-6.987c-4.27-1.641-9.023-2.468-14.268-2.468H2136.933"/>
		<path id="path42" fill="#1B5FAA" d="M2255.622,964.703v-16.494h-49.102v68.892h48.223v-16.487h-29.297v-9.705h25.027v-15.337
			h-25.027v-10.869H2255.622"/>
		<path id="path44" fill="#1B5FAA" d="M2328.007,994.585c-1.948,1.172-3.948,2.205-6.028,3.105
			c-1.743,0.791-3.699,1.516-5.867,2.183c-2.168,0.681-4.292,1.033-6.35,1.033c-1.692,0-3.025-0.271-4.036-0.784
			c-0.996-0.52-1.501-1.399-1.501-2.615c0-0.916,0.293-1.655,0.879-2.241c0.579-0.571,1.421-1.113,2.52-1.589
			c1.091-0.498,2.439-0.967,4.021-1.421c1.597-0.447,3.391-0.996,5.391-1.655c3.179-0.959,6.035-2.021,8.591-3.186
			c2.556-1.172,4.731-2.542,6.548-4.124c1.809-1.597,3.201-3.516,4.175-5.779s1.45-5.017,1.45-8.247
			c0-4.153-0.762-7.617-2.271-10.43c-1.523-2.812-3.53-5.061-6.021-6.753c-2.498-1.677-5.31-2.893-8.438-3.633
			c-3.142-0.747-6.306-1.113-9.47-1.113c-2.52,0-5.112,0.19-7.756,0.579c-2.666,0.381-5.288,0.938-7.91,1.648
			c-2.615,0.718-5.149,1.56-7.573,2.52c-2.424,0.974-4.673,2.073-6.738,3.303l8.145,16.597c2.263-1.428,4.629-2.681,7.09-3.787
			c2.065-0.974,4.417-1.853,7.031-2.622c2.622-0.776,5.295-1.165,8.005-1.165c2.058,0,3.516,0.271,4.321,0.82
			c0.813,0.557,1.208,1.282,1.208,2.197c0,0.959-0.396,1.787-1.208,2.468c-0.806,0.681-1.934,1.282-3.347,1.794
			c-1.421,0.513-3.062,1.033-4.9,1.56c-1.853,0.513-3.801,1.121-5.874,1.838c-3.047,1.033-5.662,2.146-7.859,3.34
			c-2.205,1.208-4.014,2.556-5.427,4.08c-1.428,1.523-2.483,3.259-3.164,5.2c-0.681,1.934-1.018,4.16-1.018,6.694
			c0,3.809,0.703,7.17,2.08,10.085c1.399,2.908,3.281,5.332,5.684,7.28c2.395,1.934,5.127,3.413,8.196,4.417
			c3.083,0.996,6.328,1.501,9.749,1.501c2.534,0,4.995-0.249,7.383-0.725c2.388-0.483,4.709-1.106,6.936-1.853
			c2.227-0.74,4.314-1.545,6.262-2.424c1.941-0.872,3.691-1.692,5.244-2.476L2328.007,994.585"/>
		<path id="path46" fill="#1B5FAA" d="M2399.806,1000.613h-19.79v-52.405h-18.926v52.405h-19.893v16.487h58.608V1000.613"/>
		<path id="path48" fill="#1B5FAA" d="M2427.367,997.398l-6.409-23.093h12.524L2427.367,997.398z M2393.983,948.208l25.723,68.892
			h15.33l25.613-68.892h-19.988l-4.16,13.484h-18.354l-4.08-13.484H2393.983"/>
		<path id="path50" fill="#1B5FAA" d="M2507.816,982.749c0,2.651-0.359,5.076-1.077,7.28c-0.703,2.205-1.721,4.08-3.062,5.625
			c-1.318,1.56-2.952,2.769-4.893,3.647c-1.934,0.864-4.102,1.311-6.504,1.311h-7.559v-35.911h7.559
			c2.468,0,4.658,0.447,6.606,1.362c1.934,0.901,3.574,2.168,4.9,3.772c1.326,1.633,2.329,3.53,2.996,5.735
			C2507.465,977.769,2507.816,980.164,2507.816,982.749L2507.816,982.749z M2465.797,948.208v68.892h26.484
			c5.691,0,10.708-0.901,15.044-2.71c4.336-1.816,7.954-4.277,10.862-7.383c2.922-3.105,5.12-6.738,6.614-10.906
			c1.472-4.182,2.227-8.628,2.227-13.352c0-5.237-0.835-9.983-2.476-14.209c-1.655-4.248-3.999-7.866-7.046-10.876
			c-3.032-3.003-6.687-5.332-10.957-6.987c-4.277-1.641-9.023-2.468-14.268-2.468H2465.797"/>
		<path id="path52" fill="#1B5FAA" d="M2335.294,1318.437c-160.276,0-290.669-130.397-290.669-290.673
			s130.393-290.669,290.669-290.669s290.669,130.393,290.669,290.669S2495.57,1318.437,2335.294,1318.437L2335.294,1318.437z
			 M2335.294,727.764c-165.425,0-300,134.575-300,300c0,165.421,134.575,300,300,300c165.41,0,300-134.579,300-300
			C2635.294,862.339,2500.705,727.764,2335.294,727.764"/>
	</g>
</g>
</svg>
