<?xml version="1.0" encoding="utf-8"?>
<!-- Generator: Adobe Illustrator 15.0.0, SVG Export Plug-In . SVG Version: 6.00 Build 0)  -->
<!DOCTYPE svg PUBLIC "-//W3C//DTD SVG 1.1//EN" "http://www.w3.org/Graphics/SVG/1.1/DTD/svg11.dtd">
<svg version="1.1" id="Layer_1" xmlns="http://www.w3.org/2000/svg" xmlns:xlink="http://www.w3.org/1999/xlink" x="0px" y="0px"
	 width="254.083px" height="104.65px" viewBox="0 0 254.083 104.65" enable-background="new 0 0 254.083 104.65"
	 xml:space="preserve">
<g>
	<g>
		<g>
			<path fill="#1B5FAA" d="M86.692,22.083h16.062v4.446H91.315v6.42h11.043v4.445H91.315v10.728h-4.623V22.083z"/>
			<path fill="#1B5FAA" d="M105.592,19.911l4.031-0.396h0.592v28.607h-4.623V19.911z"/>
			<path fill="#1B5FAA" d="M130.969,48.518c-0.77,0-1.521-0.119-2.292-0.455c-0.771-0.316-1.54-0.85-2.311-1.699
				c-0.809,0.612-1.522,1.146-2.37,1.521c-0.87,0.396-1.838,0.633-3.161,0.633c-0.949,0-1.996-0.139-3.003-0.494
				c-1.007-0.356-1.936-0.948-2.627-1.917c-0.691-0.967-1.126-2.311-1.126-4.129c0-1.797,0.435-3.24,1.541-4.208
				c1.106-0.968,2.904-1.5,5.65-1.5c1.105,0,2.39,0,4.207,0.157v-1.027c0-1.423-0.453-2.41-1.185-3.002
				c-0.731-0.593-1.72-0.831-2.825-0.831c-0.869,0-1.837,0.158-2.786,0.415c-0.948,0.257-1.896,0.593-2.707,0.988l-1.087-4.03
				c2.154-1.028,4.899-1.739,7.487-1.739c2.036,0,3.933,0.435,5.355,1.501c1.401,1.067,2.291,2.746,2.291,5.255v7.626
				c0,0.968,0.316,1.659,0.868,2.134c0.534,0.474,1.285,0.751,2.173,0.929L130.969,48.518z M125.458,39.825
				c-2.155,0-3.834-0.04-4.98,0.237c-1.146,0.276-1.778,0.869-1.778,2.074c0,1.679,1.206,2.608,2.885,2.608
				c0.572,0,1.541-0.118,2.371-0.633c0.831-0.514,1.502-1.402,1.502-3.042V39.825z"/>
			<path fill="#1B5FAA" d="M135.728,27.615h3.911l0.454,1.601c1.896-1.265,4.249-1.996,6.539-1.996c1.956,0,3.833,0.534,5.197,1.719
				c1.362,1.185,2.252,3.022,2.252,5.571v13.612h-4.622V35.874c0-1.521-0.555-2.588-1.403-3.26c-0.851-0.672-2.036-0.948-3.24-0.948
				c-1.582,0-3.2,0.474-4.466,1.265v15.192h-4.622V27.615z"/>
			<path fill="#1B5FAA" d="M176.29,48.123h-3.496l-0.83-1.541c-1.581,1.185-3.241,1.937-5.514,1.937
				c-2.943,0-5.136-1.186-6.577-3.003c-1.442-1.817-2.153-4.268-2.153-6.796c0-3.873,1.165-6.757,3.103-8.673
				c1.935-1.896,4.661-2.825,7.822-2.825c0.928,0,1.936,0.059,3.021,0.198v-7.507l3.913-0.396h0.711V48.123z M171.666,31.962
				c-1.164-0.296-2.351-0.435-3.278-0.435c-1.759,0-3.239,0.514-4.267,1.581c-1.027,1.066-1.621,2.647-1.621,4.78
				c0,1.561,0.436,3.082,1.264,4.248c0.83,1.166,2.057,1.936,3.695,1.936c1.403,0,2.963-0.494,4.207-1.264V31.962z"/>
			<path fill="#1B5FAA" d="M196.496,42.808v4.484c-0.929,0.455-1.917,0.732-2.924,0.929c-1.029,0.198-2.035,0.297-2.904,0.297
				c-2.846,0-5.473-0.89-7.409-2.648c-1.936-1.758-3.16-4.445-3.16-8c0-3.458,1.145-6.105,2.884-7.922
				c1.718-1.798,4.031-2.727,6.342-2.727c0.651,0,1.818,0.079,3.021,0.494c1.206,0.415,2.529,1.205,3.518,2.568
				c0.988,1.363,1.681,3.378,1.681,6.223v3.083h-12.447c0.376,1.659,1.225,2.786,2.332,3.497c1.086,0.711,2.41,1.007,3.732,1.007
				c1.74,0,3.576-0.494,5.156-1.343L196.496,42.808z M193.315,35.933c-0.14-1.502-0.632-2.568-1.343-3.28
				c-0.713-0.691-1.621-0.988-2.51-0.988c-0.948,0-1.918,0.316-2.706,1.007c-0.812,0.711-1.463,1.778-1.72,3.26H193.315z"/>
			<path fill="#1B5FAA" d="M213.581,32.712c-1.165-0.711-2.311-1.027-3.477-1.027c-1.501,0-2.886,0.554-4.128,1.502v14.936h-4.625
				V27.615h3.912l0.475,1.68c1.423-1.205,3.161-2.075,5.216-2.075c0.552,0,1.322,0.04,2.074,0.178
				c0.75,0.139,1.48,0.336,2.015,0.632L213.581,32.712z"/>
			<path fill="#1B5FAA" d="M216.44,42.788l0.158-0.118c0.573,0.316,1.362,0.651,2.251,0.948c0.869,0.296,1.857,0.493,2.825,0.493
				c0.812,0,1.681-0.138,2.331-0.533c0.633-0.375,1.066-0.968,1.066-1.856c0-0.969-0.553-1.581-1.344-1.996
				c-0.415-0.217-0.868-0.396-1.382-0.553c-1.046-0.316-2.133-0.692-3.162-1.186c-1.045-0.494-1.875-1.285-2.37-2.47
				c-0.257-0.593-0.374-1.324-0.374-2.193c0-2.153,0.849-3.694,2.152-4.683c1.305-0.988,3.063-1.422,4.938-1.422
				c1.582,0,3.359,0.316,4.565,0.771v4.149l-0.238,0.178c-1.105-0.534-2.192-0.831-3.536-0.831c-0.868,0-1.68,0.139-2.271,0.435
				c-0.594,0.296-0.988,0.75-0.988,1.383c0,0.731,0.534,1.186,1.344,1.561c0.395,0.178,0.851,0.356,1.364,0.514
				c1.006,0.336,2.093,0.731,3.12,1.304s1.857,1.462,2.353,2.707c0.235,0.632,0.354,1.383,0.354,2.272
				c0,2.37-0.948,4.09-2.411,5.196c-1.461,1.126-3.437,1.66-5.473,1.66c-2.055,0-3.87-0.514-5.273-1.403V42.788z"/>
		</g>
	</g>
	<g>
		<path fill="#1B5FAA" d="M47.849,50.627c-2.645-2.02-3.888,0.014-5.55-0.12c-1.406-0.114-2.728-2.385-3.815-1.843
			c-2.08,1.057,0.83,4.8,2.098,5.561c1.121,0.673,2.542,1.297,2.883,1.456c1.667,0.779,2.334,1.963,2.546,3.809
			c0.048,0.425-0.004,1.388-0.109,1.839c-0.758,3.237-6.428,6.177-9.685,3.952c-1.532-1.05-2.932-2.404-3.417-4.811
			c-0.875-4.252-3.944-7.376-4.931-11.54c-0.599-2.528-1.042-5.199-1.704-7.744c-0.671-2.627-1.362-5.234-1.908-7.625
			c-0.506-2.222-1.562-5.541-2.327-7.564c-3.108-8.117-4.511-7.526-4.511-7.526s1.132,2.251,5.25,22.153
			c0.163,0.812,1.663,9.576,2.759,12.463c0.387,1.034,1.07,3.247,1.521,4.221c1.308,2.851,4.767,7.174,4.995,11.069
			c0.129,2.254,0.389,4.117,0.441,5.821c0.038,0.5,0.255,2.529,0.578,3.432c0.848,2.375,7.663,10.047,14.9,10.047v-5.811
			c-7.194,0-13.966-4.03-14.135-4.457c-0.104-0.188,0.377-2.937,0.864-4.16c0.94-2.366,2.72-4.531,5.841-4.76
			c3.486-0.251,5.589,0.76,7.429,0.76L47.849,50.627z"/>
		<path fill="#1B5FAA" d="M16.615,29.535c-0.264,4.355-6.998,10.304-9.107,14.115c-1.033,1.879-2.297,5.101-2.624,6.967
			c-0.896,5.194,0.243,8.419,1.509,11.454c2.227,5.347-0.301,7.306,1.438,6.226c2.159-1.758,1.828-5.857,1.672-8.417
			c-0.127-2.076-0.268-4.438,0.051-6.914c0.596-4.631,3.401-9.605,5.796-13.075C18.193,35.744,17.16,31.457,16.615,29.535"/>
		<path fill="#1B5FAA" d="M17.971,41.896c0,0,0.72,3.447-2.321,12.312c-7.954,23.184,7.236,25.38,11.562,30.831
			c0,0,1.677-2.36-5.218-9.919c-2.512-2.766-4.785-8.846-2.805-17.537C22.047,44.995,17.971,41.896,17.971,41.896"/>
		<path fill="#1B5FAA" d="M2.931,26.696c-0.365-1.369-0.475-2.594-0.394-3.69c0.368-5.447,5.315-7.653,6.547-8.466
			c0,0,2.224-1.521,2.513-3.059c0,0,2.275,5.733-2.945,9.017C6,22.167,4.2,24.122,2.931,26.696"/>
		<path fill="#1B5FAA" d="M15.406,21.428c0.282,0.552,2.336,3.554-6.064,10.484c-8.38,6.925-5.767,11.873-5.767,11.873
			s-8.944-4.978,1.364-13.574c10.302-8.591,8.19-10.334,8.19-10.334S14.601,19.805,15.406,21.428"/>
		<g>
			<path fill="#1B5FAA" d="M26.307,24.084c1.45,0.189,2.375,4.713,5.732,5.698c2.469,0.718,5.089,0.327,5.669,1.812
				c-1.13,0.601-0.24,2.59,0.902,2.266C39.552,31.216,40.02,20.998,26.307,24.084z M30.828,26.118
				c0.124-0.326,0.299-0.06,0.667-0.295c0.392-0.366,0.793-0.975,1.428-1.18c0.457-0.141,1.087-0.073,1.509,0.091
				c0.288,0.068,0.114,0.799-0.101,0.987c-0.452,0.338-1.791-0.216-1.791,0.791c0.054,1.646,2.223-0.054,3.362-0.008
				C36.448,30.526,29.843,29.416,30.828,26.118z"/>
		</g>
	</g>

		<rect x="9.749" y="51.341" transform="matrix(0.3276 0.9448 -0.9448 0.3276 91.9498 -26.032)" fill="#1B5FAA" width="109.032" height="0.496"/>
</g>
<g>
	<path fill="#1B5FAA" d="M85.048,76.059l0.037-0.012c0.409,0.186,0.992,0.347,1.613,0.471c0.62,0.125,1.302,0.211,1.985,0.211
		c0.955,0,1.898-0.173,2.592-0.582c0.695-0.41,1.154-1.08,1.154-2.11c0-1.092-0.508-1.736-1.439-2.318
		c-0.645-0.41-1.538-0.845-2.394-1.278c-0.856-0.435-1.687-0.844-2.171-1.241c-0.794-0.632-1.29-1.65-1.29-3.126
		c0-1.637,0.621-2.741,1.563-3.436c0.942-0.695,2.208-0.969,3.498-0.969c1.005,0,1.985,0.174,2.878,0.435v1.638l-0.037,0.024
		c-0.745-0.147-1.799-0.334-2.841-0.334c-0.844,0-1.662,0.123-2.283,0.496c-0.621,0.372-1.029,1.005-1.029,1.997
		c0,0.806,0.26,1.315,0.707,1.712c0.435,0.384,1.166,0.757,2.009,1.178c0.844,0.423,1.774,0.882,2.568,1.39
		c0.583,0.386,1.104,0.758,1.464,1.29c0.36,0.546,0.583,1.217,0.583,2.123c0,1.674-0.732,2.901-1.823,3.708
		c-1.092,0.807-2.556,1.191-4.008,1.191c-1.191,0-2.344-0.236-3.336-0.72V76.059z"/>
	<path fill="#1B5FAA" d="M95.852,65.391h1.427v-2.308l1.799-0.336h0.124v2.644h3.573v1.785h-3.573v6.327
		c0,1.179,0.261,1.973,0.67,2.495c0.409,0.52,0.992,0.743,1.65,0.743c0.744,0,1.575-0.284,2.419-0.769l0.521,1.762
		c-1.092,0.496-2.171,0.781-3.176,0.781c-1.129,0-2.109-0.348-2.841-1.154c-0.732-0.794-1.166-2.06-1.166-3.858v-6.327h-1.427
		V65.391z"/>
	<path fill="#1B5FAA" d="M115.701,78.516c-0.906-0.298-1.539-0.955-1.948-1.8c-0.446,0.509-1.017,0.956-1.674,1.278
		c-0.658,0.322-1.439,0.521-2.295,0.521s-1.898-0.187-2.729-0.781c-0.844-0.596-1.451-1.588-1.451-3.188
		c0-1.191,0.347-2.121,1.141-2.767c0.794-0.633,2.022-0.956,3.771-0.956c0.695,0,1.452,0.05,2.593,0.149v-1.601
		c0-0.955-0.273-1.588-0.707-1.959c-0.446-0.373-1.067-0.496-1.725-0.496c-0.657,0-1.278,0.061-1.911,0.198
		c-0.632,0.148-1.265,0.372-1.959,0.719l-0.497-1.675c0.856-0.347,1.526-0.595,2.233-0.769c0.694-0.174,1.439-0.249,2.468-0.249
		c1.055,0,2.072,0.236,2.804,0.882c0.732,0.645,1.204,1.699,1.204,3.349v4.095c0,0.682,0.038,1.364,0.285,1.947
		c0.248,0.596,0.694,1.055,1.488,1.302L115.701,78.516z M113.108,72.598c-1.774-0.013-3.176-0.037-4.131,0.199
		c-0.955,0.247-1.476,0.744-1.476,1.749c0,0.942,0.434,1.488,0.93,1.799c0.484,0.311,1.005,0.384,1.204,0.384
		c0.682,0,1.551-0.086,2.246-0.532c0.694-0.435,1.228-1.205,1.228-2.556V72.598z"/>
	<path fill="#1B5FAA" d="M117.808,65.391h1.427v-2.308l1.799-0.336h0.124v2.644h3.573v1.785h-3.573v6.327
		c0,1.179,0.26,1.973,0.67,2.495c0.409,0.52,0.993,0.743,1.65,0.743c0.744,0,1.576-0.284,2.418-0.769l0.521,1.762
		c-1.091,0.496-2.172,0.781-3.176,0.781c-1.129,0-2.108-0.348-2.84-1.154c-0.732-0.794-1.166-2.06-1.166-3.858v-6.327h-1.427V65.391
		z"/>
	<path fill="#1B5FAA" d="M137.495,72.312h-8.027c0.1,1.49,0.621,2.595,1.377,3.325c0.757,0.732,1.773,1.092,2.878,1.092
		c1.154,0,2.296-0.322,3.474-0.917l0.038,0.013v1.773c-1.34,0.657-2.507,0.918-3.697,0.918c-1.6,0-3.102-0.534-4.192-1.65
		c-1.092-1.116-1.788-2.816-1.788-5.198c0-1.836,0.422-3.486,1.329-4.651c0.892-1.166,2.27-1.874,4.205-1.874
		c1.328,0,2.246,0.335,2.903,0.869c0.645,0.532,1.03,1.266,1.241,2.071c0.211,0.807,0.261,1.688,0.261,2.494V72.312z
		 M135.609,70.577c-0.012-0.993-0.149-1.898-0.533-2.569c-0.385-0.669-1.018-1.078-2.022-1.078c-0.979,0-1.762,0.385-2.358,1.029
		c-0.595,0.646-0.979,1.563-1.141,2.618H135.609z"/>
	<path fill="#1B5FAA" d="M146.785,71.867c0-1.873,0.621-3.549,1.676-4.764c1.041-1.217,2.53-1.961,4.279-1.961
		s3.237,0.757,4.256,1.961c1.017,1.203,1.6,2.866,1.6,4.701c0,1.873-0.608,3.536-1.65,4.752c-1.054,1.216-2.556,1.96-4.305,1.96
		c-1.773,0-3.225-0.757-4.243-1.96C147.381,75.366,146.785,73.702,146.785,71.867z M148.708,71.767c0,1.341,0.335,2.593,1.018,3.485
		c0.683,0.906,1.687,1.477,3.026,1.477c1.29,0,2.271-0.521,2.928-1.376c0.657-0.856,0.993-2.072,0.993-3.449
		c0-1.353-0.336-2.604-0.993-3.511c-0.657-0.905-1.649-1.464-2.989-1.464c-1.29,0-2.282,0.521-2.952,1.389
		C149.068,69.187,148.708,70.416,148.708,71.767z"/>
	<path fill="#1B5FAA" d="M160.107,65.391h2.084v-0.049c0-1.898,0.409-3.164,1.092-3.946c0.682-0.782,1.65-1.092,2.753-1.092
		c0.943,0,1.961,0.21,3.015,0.545l-0.521,1.688c-0.843-0.285-1.625-0.459-2.27-0.459c-0.646,0-1.18,0.198-1.552,0.693
		c-0.371,0.51-0.595,1.329-0.595,2.57v0.049h2.915v1.773h-2.915v11.104h-1.923V67.165h-2.084V65.391z"/>
	<path fill="#1B5FAA" d="M175.552,65.391h1.427v-2.308l1.798-0.336h0.125v2.644h3.573v1.785h-3.573v6.327
		c0,1.179,0.261,1.973,0.67,2.495c0.409,0.52,0.993,0.743,1.65,0.743c0.744,0,1.575-0.284,2.418-0.769l0.521,1.762
		c-1.092,0.496-2.171,0.781-3.176,0.781c-1.129,0-2.109-0.348-2.842-1.154c-0.731-0.794-1.165-2.06-1.165-3.858v-6.327h-1.427
		V65.391z"/>
	<path fill="#1B5FAA" d="M186.294,60.552l1.799-0.247h0.124v6.103c0.509-0.31,1.129-0.633,1.762-0.868
		c0.633-0.236,1.266-0.397,1.823-0.397c1.229,0,2.357,0.311,3.201,1.08c0.831,0.769,1.352,1.985,1.352,3.808v8.238h-1.922V70.13
		c0-1.241-0.323-2.048-0.818-2.544c-0.51-0.483-1.217-0.669-1.998-0.669c-0.597,0-1.204,0.147-1.787,0.384
		c-0.583,0.247-1.116,0.558-1.612,0.855v10.111h-1.923V60.552z"/>
	<path fill="#1B5FAA" d="M209.169,72.312h-8.027c0.1,1.49,0.62,2.595,1.377,3.325c0.757,0.732,1.773,1.092,2.878,1.092
		c1.153,0,2.296-0.322,3.474-0.917l0.038,0.013v1.773c-1.34,0.657-2.507,0.918-3.697,0.918c-1.601,0-3.102-0.534-4.193-1.65
		c-1.091-1.116-1.787-2.816-1.787-5.198c0-1.836,0.423-3.486,1.329-4.651c0.892-1.166,2.27-1.874,4.205-1.874
		c1.326,0,2.245,0.335,2.902,0.869c0.645,0.532,1.03,1.266,1.241,2.071c0.211,0.807,0.261,1.688,0.261,2.494V72.312z
		 M207.282,70.577c-0.012-0.993-0.148-1.898-0.533-2.569c-0.385-0.669-1.018-1.078-2.022-1.078c-0.979,0-1.761,0.385-2.356,1.029
		c-0.596,0.646-0.98,1.563-1.142,2.618H207.282z"/>
	<path fill="#1B5FAA" d="M228.297,74.459h-7.22l-1.315,3.809h-1.985l5.619-16.352h2.569l5.632,16.352h-1.985L228.297,74.459z
		 M221.686,72.672h6.003l-3.003-8.695L221.686,72.672z"/>
	<path fill="#1B5FAA" d="M233.939,65.391h1.29l0.447,1.464c0.955-1.104,1.972-1.713,3.162-1.713c0.31,0,0.695,0.038,1.08,0.111
		c0.385,0.075,0.757,0.199,1.054,0.336l-0.669,1.725c-0.483-0.236-1.241-0.396-1.775-0.396c-1.129,0-2.009,0.719-2.666,1.723v9.628
		h-1.923V65.391z"/>
	<path fill="#1B5FAA" d="M241.915,65.391h1.427v-2.308l1.798-0.336h0.125v2.644h3.573v1.785h-3.573v6.327
		c0,1.179,0.261,1.973,0.67,2.495c0.41,0.52,0.993,0.743,1.65,0.743c0.744,0,1.575-0.284,2.418-0.769l0.521,1.762
		c-1.092,0.496-2.17,0.781-3.176,0.781c-1.129,0-2.108-0.348-2.842-1.154c-0.73-0.794-1.165-2.06-1.165-3.858v-6.327h-1.427V65.391z
		"/>
</g>
</svg>
