<?xml version="1.0" encoding="UTF-8"?>
<!-- Generator: Adobe Illustrator 21.1.0, SVG Export Plug-In . SVG Version: 6.00 Build 0)  -->
<svg version="1.1" xmlns="http://www.w3.org/2000/svg" xmlns:xlink="http://www.w3.org/1999/xlink" x="0px" y="0px" viewBox="0 0 1920 2977" style="enable-background:new 0 0 1920 2977;" xml:space="preserve">
<style type="text/css">
	.st0{display:none;}
	.st1{display:inline;fill:#FFFFFF;stroke:#000000;stroke-width:6;stroke-miterlimit:10;}
	.st2{display:inline;fill:#FFFFFF;stroke:#000000;stroke-width:0.5;stroke-miterlimit:10;}
	.st3{fill:#FFFFFF;stroke:#1B5FAA;stroke-width:3;stroke-miterlimit:10;}
	.st4{fill:#FFFFFF;stroke:#1B5FAA;stroke-width:0.5;stroke-miterlimit:10;}
</style>
<g id="Calque_1" class="st0">
	<polyline class="st1" points="0,0 960,0 1920,0  "/>
	<line class="st2" x1="960.5" y1="0" x2="-7039.5" y2="1080"/>
	<line class="st2" x1="960.5" y1="0" x2="-6879.5" y2="1080"/>
	<line class="st2" x1="960.5" y1="0" x2="-6719.5" y2="1080"/>
	<line class="st2" x1="960.5" y1="0" x2="-6559.5" y2="1080"/>
	<line class="st2" x1="960.5" y1="0" x2="-6399.5" y2="1080"/>
	<line class="st2" x1="960.5" y1="0" x2="-6239.5" y2="1080"/>
	<line class="st2" x1="960.5" y1="0" x2="-6079.5" y2="1080"/>
	<line class="st2" x1="960.5" y1="0" x2="-5919.5" y2="1080"/>
	<line class="st2" x1="960.5" y1="0" x2="-5759.5" y2="1080"/>
	<line class="st2" x1="960.5" y1="0" x2="-5599.5" y2="1080"/>
	<line class="st2" x1="960.5" y1="0" x2="-5439.5" y2="1080"/>
	<line class="st2" x1="960.5" y1="0" x2="-5279.5" y2="1080"/>
	<line class="st2" x1="960.5" y1="0" x2="-5119.5" y2="1080"/>
	<line class="st2" x1="960.5" y1="0" x2="-4959.5" y2="1080"/>
	<line class="st2" x1="960.5" y1="0" x2="-4799.5" y2="1080"/>
	<line class="st2" x1="960.5" y1="0" x2="-4639.5" y2="1080"/>
	<line class="st2" x1="960.5" y1="0" x2="-4479.5" y2="1080"/>
	<line class="st2" x1="960.5" y1="0" x2="-4319.5" y2="1080"/>
	<line class="st2" x1="960.5" y1="0" x2="-4159.5" y2="1080"/>
	<line class="st2" x1="960.5" y1="0" x2="-3999.5" y2="1080"/>
	<line class="st2" x1="960.5" y1="0" x2="-3839.5" y2="1080"/>
	<line class="st2" x1="960.5" y1="0" x2="-3679.5" y2="1080"/>
	<line class="st2" x1="960.5" y1="0" x2="-3519.5" y2="1080"/>
	<line class="st2" x1="960.5" y1="0" x2="-3359.5" y2="1080"/>
	<line class="st2" x1="960.5" y1="0" x2="-3199.5" y2="1080"/>
	<line class="st2" x1="960.5" y1="0" x2="-3039.5" y2="1080"/>
	<line class="st2" x1="960.5" y1="0" x2="-2879.5" y2="1080"/>
	<line class="st2" x1="960.5" y1="0" x2="-2719.5" y2="1080"/>
	<line class="st2" x1="960.5" y1="0" x2="-2559.5" y2="1080"/>
	<line class="st2" x1="960.5" y1="0" x2="-2399.5" y2="1080"/>
	<line class="st2" x1="960.5" y1="0" x2="-2239.5" y2="1080"/>
	<line class="st2" x1="960.5" y1="0" x2="-2079.5" y2="1080"/>
	<line class="st2" x1="960.5" y1="0" x2="-1919.5" y2="1080"/>
	<line class="st2" x1="960.5" y1="0" x2="-1759.5" y2="1080"/>
	<line class="st2" x1="960.5" y1="0" x2="-1599.5" y2="1080"/>
	<line class="st2" x1="960.5" y1="0" x2="-1439.5" y2="1080"/>
	<line class="st2" x1="960.5" y1="0" x2="-1279.5" y2="1080"/>
	<line class="st2" x1="960.5" y1="0" x2="-1119.5" y2="1080"/>
	<line class="st2" x1="960.5" y1="0" x2="-959.5" y2="1080"/>
	<line class="st2" x1="960.5" y1="0" x2="-799.5" y2="1080"/>
	<line class="st2" x1="960.5" y1="0" x2="-639.5" y2="1080"/>
	<line class="st2" x1="960.5" y1="0" x2="-479.5" y2="1080"/>
	<line class="st2" x1="960.5" y1="0" x2="-319.5" y2="1080"/>
	<line class="st2" x1="960.5" y1="0" x2="-159.5" y2="1080"/>
	<line class="st2" x1="960.5" y1="0" x2="0.5" y2="1080"/>
	<line class="st2" x1="960.5" y1="0" x2="160.5" y2="1080"/>
	<line class="st2" x1="960.5" y1="0" x2="320.5" y2="1080"/>
	<line class="st2" x1="960.5" y1="0" x2="480.5" y2="1080"/>
	<line class="st2" x1="960.5" y1="0" x2="640.5" y2="1080"/>
	<line class="st2" x1="960.5" y1="0" x2="800.5" y2="1080"/>
	<line class="st2" x1="960.5" y1="0" x2="960.5" y2="1080"/>
	<line class="st2" x1="960.5" y1="0" x2="1120.5" y2="1080"/>
	<line class="st2" x1="960.5" y1="0" x2="1280.5" y2="1080"/>
	<line class="st2" x1="960.5" y1="0" x2="1440.5" y2="1080"/>
	<line class="st2" x1="960.5" y1="0" x2="1600.5" y2="1080"/>
	<line class="st2" x1="960.5" y1="0" x2="1760.5" y2="1080"/>
	<line class="st2" x1="960.5" y1="0" x2="1920.5" y2="1080"/>
	<line class="st2" x1="960.5" y1="0" x2="2080.5" y2="1080"/>
	<line class="st2" x1="960.5" y1="0" x2="2240.5" y2="1080"/>
	<line class="st2" x1="960.5" y1="0" x2="2400.5" y2="1080"/>
	<line class="st2" x1="960.5" y1="0" x2="2560.5" y2="1080"/>
	<line class="st2" x1="960.5" y1="0" x2="2720.5" y2="1080"/>
	<line class="st2" x1="960.5" y1="0" x2="2880.5" y2="1080"/>
	<line class="st2" x1="960.5" y1="0" x2="3040.5" y2="1080"/>
	<line class="st2" x1="960.5" y1="0" x2="3200.5" y2="1080"/>
	<line class="st2" x1="960.5" y1="0" x2="3360.5" y2="1080"/>
	<line class="st2" x1="960.5" y1="0" x2="3520.5" y2="1080"/>
	<line class="st2" x1="960.5" y1="0" x2="3680.5" y2="1080"/>
	<line class="st2" x1="960.5" y1="0" x2="3840.5" y2="1080"/>
	<line class="st2" x1="960.5" y1="0" x2="4000.5" y2="1080"/>
	<line class="st2" x1="960.5" y1="0" x2="4160.5" y2="1080"/>
	<line class="st2" x1="960.5" y1="0" x2="4320.5" y2="1080"/>
	<line class="st2" x1="960.5" y1="0" x2="4480.5" y2="1080"/>
	<line class="st2" x1="960.5" y1="0" x2="4640.5" y2="1080"/>
	<line class="st2" x1="960.5" y1="0" x2="4800.5" y2="1080"/>
	<line class="st2" x1="960.5" y1="0" x2="4960.5" y2="1080"/>
	<line class="st2" x1="960.5" y1="0" x2="5120.5" y2="1080"/>
	<line class="st2" x1="960.5" y1="0" x2="5280.5" y2="1080"/>
	<line class="st2" x1="960.5" y1="0" x2="5440.5" y2="1080"/>
	<line class="st2" x1="960.5" y1="0" x2="5600.5" y2="1080"/>
	<line class="st2" x1="960.5" y1="0" x2="5760.5" y2="1080"/>
	<line class="st2" x1="960.5" y1="0" x2="5920.5" y2="1080"/>
	<line class="st2" x1="960.5" y1="0" x2="6080.5" y2="1080"/>
	<line class="st2" x1="960.5" y1="0" x2="6240.5" y2="1080"/>
	<line class="st2" x1="960.5" y1="0" x2="6400.5" y2="1080"/>
	<line class="st2" x1="960.5" y1="0" x2="6560.5" y2="1080"/>
	<line class="st2" x1="960.5" y1="0" x2="6720.5" y2="1080"/>
	<line class="st2" x1="960.5" y1="0" x2="6880.5" y2="1080"/>
	<line class="st2" x1="960.5" y1="0" x2="7040.5" y2="1080"/>
	<line class="st2" x1="960.5" y1="0" x2="7200.5" y2="1080"/>
	<line class="st2" x1="960.5" y1="0" x2="7360.5" y2="1080"/>
	<line class="st2" x1="960.5" y1="0" x2="7520.5" y2="1080"/>
	<line class="st2" x1="960.5" y1="0" x2="7680.5" y2="1080"/>
	<line class="st2" x1="960.5" y1="0" x2="7840.5" y2="1080"/>
	<line class="st2" x1="960.5" y1="0" x2="8000.5" y2="1080"/>
	<line class="st2" x1="960.5" y1="0" x2="8160.5" y2="1080"/>
	<line class="st2" x1="960.5" y1="0" x2="8320.5" y2="1080"/>
	<line class="st2" x1="960.5" y1="0" x2="8480.5" y2="1080"/>
	<line class="st2" x1="960.5" y1="0" x2="8640.5" y2="1080"/>
	<line class="st2" x1="960.5" y1="0" x2="8800.5" y2="1080"/>
	<line class="st2" x1="960.5" y1="0" x2="8960.5" y2="1080"/>
</g>
<g id="Calque_2">
	<polyline class="st3" points="0,1.1 960,1.1 1920,1.1  "/>
	<line class="st4" x1="959.5" y1="0.5" x2="959.5" y2="3201"/>
	<line class="st4" x1="959.5" y1="0.5" x2="1221" y2="3188.8"/>
	<line class="st4" x1="959.5" y1="0.5" x2="1480.4" y2="3152.4"/>
	<line class="st4" x1="959.5" y1="0.5" x2="1736" y2="3091.9"/>
	<line class="st4" x1="959.5" y1="0.5" x2="1985.6" y2="3008"/>
	<line class="st4" x1="959.5" y1="0.5" x2="2227.4" y2="2901.1"/>
	<line class="st4" x1="959.5" y1="0.5" x2="2459.5" y2="2772.2"/>
	<line class="st4" x1="959.5" y1="0.5" x2="2680.2" y2="2622.2"/>
	<line class="st4" x1="959.5" y1="0.5" x2="2887.9" y2="2452.2"/>
	<line class="st4" x1="959.5" y1="0.5" x2="3080.8" y2="2263.6"/>
	<line class="st4" x1="959.5" y1="0.5" x2="3257.6" y2="2057.7"/>
	<line class="st4" x1="959.5" y1="0.5" x2="3417" y2="1836.2"/>
	<line class="st4" x1="959.5" y1="0.5" x2="3557.6" y2="1600.8"/>
	<line class="st4" x1="959.5" y1="0.5" x2="3678.4" y2="1353.1"/>
	<line class="st4" x1="959.5" y1="0.5" x2="3778.6" y2="1095.1"/>
	<line class="st4" x1="959.5" y1="0.5" x2="3857.3" y2="828.9"/>
	<line class="st4" x1="959.5" y1="0.5" x2="3913.9" y2="556.3"/>
	<line class="st4" x1="959.5" y1="0.5" x2="3948.1" y2="279.4"/>
	<line class="st4" x1="959.5" y1="0.5" x2="-2029.1" y2="279.4"/>
	<line class="st4" x1="959.5" y1="0.5" x2="-1994.9" y2="556.3"/>
	<line class="st4" x1="959.5" y1="0.5" x2="-1938.3" y2="828.9"/>
	<line class="st4" x1="959.5" y1="0.5" x2="-1859.6" y2="1095.1"/>
	<line class="st4" x1="959.5" y1="0.5" x2="-1759.4" y2="1353.1"/>
	<line class="st4" x1="959.5" y1="0.5" x2="-1638.6" y2="1600.8"/>
	<line class="st4" x1="959.5" y1="0.5" x2="-1498" y2="1836.2"/>
	<line class="st4" x1="959.5" y1="0.5" x2="-1338.6" y2="2057.7"/>
	<line class="st4" x1="959.5" y1="0.5" x2="-1161.8" y2="2263.6"/>
	<line class="st4" x1="959.5" y1="0.5" x2="-968.9" y2="2452.2"/>
	<line class="st4" x1="959.5" y1="0.5" x2="-761.2" y2="2622.2"/>
	<line class="st4" x1="959.5" y1="0.5" x2="-540.5" y2="2772.2"/>
	<line class="st4" x1="959.5" y1="0.5" x2="-308.4" y2="2901.1"/>
	<line class="st4" x1="959.5" y1="0.5" x2="-66.6" y2="3008"/>
	<line class="st4" x1="959.5" y1="0.5" x2="183" y2="3091.9"/>
	<line class="st4" x1="959.5" y1="0.5" x2="438.6" y2="3152.4"/>
	<line class="st4" x1="959.5" y1="0.5" x2="698" y2="3188.8"/>
</g>
</svg>