<svg id="Calque_2" data-name="Calque 2" xmlns="http://www.w3.org/2000/svg" viewBox="0 0 1920 1080"><defs><style>.cls-1,.cls-2{fill:#fff;stroke:#1b5faa;stroke-miterlimit:10;}.cls-1{stroke-width:3px;}.cls-2{stroke-width:0.5px;}</style></defs><title>WAB_background_wrk2_180409_A</title><polyline class="cls-1" points="0 1.5 960 1.5 1920 1.5"/><line class="cls-2" x1="959.5" y1="0.5" x2="959.5" y2="1228"/><line class="cls-2" x1="959.5" y1="0.5" x2="1220.97" y2="1223.33"/><line class="cls-2" x1="959.5" y1="0.5" x2="1480.44" y2="1209.35"/><line class="cls-2" x1="959.5" y1="0.5" x2="1735.96" y2="1186.17"/><line class="cls-2" x1="959.5" y1="0.5" x2="1985.56" y2="1153.97"/><line class="cls-2" x1="959.5" y1="0.5" x2="2227.35" y2="1112.99"/><line class="cls-2" x1="959.5" y1="0.5" x2="2459.5" y2="1063.55"/><line class="cls-2" x1="959.5" y1="0.5" x2="2680.23" y2="1006.01"/><line class="cls-2" x1="959.5" y1="0.5" x2="2887.86" y2="940.82"/><line class="cls-2" x1="959.5" y1="0.5" x2="3080.82" y2="868.47"/><line class="cls-2" x1="959.5" y1="0.5" x2="3257.63" y2="789.52"/><line class="cls-2" x1="959.5" y1="0.5" x2="3416.96" y2="704.57"/><line class="cls-2" x1="959.5" y1="0.5" x2="3557.58" y2="614.25"/><line class="cls-2" x1="959.5" y1="0.5" x2="3678.42" y2="519.26"/><line class="cls-2" x1="959.5" y1="0.5" x2="3778.58" y2="420.33"/><line class="cls-2" x1="959.5" y1="0.5" x2="3857.28" y2="318.2"/><line class="cls-2" x1="959.5" y1="0.5" x2="3913.92" y2="213.65"/><line class="cls-2" x1="959.5" y1="0.5" x2="3948.08" y2="107.48"/><line class="cls-2" x1="959.5" y1="0.5" x2="-2029.08" y2="107.48"/><line class="cls-2" x1="959.5" y1="0.5" x2="-1994.92" y2="213.65"/><line class="cls-2" x1="959.5" y1="0.5" x2="-1938.28" y2="318.2"/><line class="cls-2" x1="959.5" y1="0.5" x2="-1859.58" y2="420.33"/><line class="cls-2" x1="959.5" y1="0.5" x2="-1759.42" y2="519.26"/><line class="cls-2" x1="959.5" y1="0.5" x2="-1638.58" y2="614.25"/><line class="cls-2" x1="959.5" y1="0.5" x2="-1497.96" y2="704.57"/><line class="cls-2" x1="959.5" y1="0.5" x2="-1338.63" y2="789.52"/><line class="cls-2" x1="959.5" y1="0.5" x2="-1161.82" y2="868.47"/><line class="cls-2" x1="959.5" y1="0.5" x2="-968.86" y2="940.82"/><line class="cls-2" x1="959.5" y1="0.5" x2="-761.23" y2="1006.01"/><line class="cls-2" x1="959.5" y1="0.5" x2="-540.5" y2="1063.55"/><line class="cls-2" x1="959.5" y1="0.5" x2="-308.35" y2="1112.99"/><line class="cls-2" x1="959.5" y1="0.5" x2="-66.56" y2="1153.97"/><line class="cls-2" x1="959.5" y1="0.5" x2="183.04" y2="1186.17"/><line class="cls-2" x1="959.5" y1="0.5" x2="438.56" y2="1209.35"/><line class="cls-2" x1="959.5" y1="0.5" x2="698.03" y2="1223.33"/></svg>