<?xml version="1.0" encoding="utf-8"?>
<!-- Generator: Adobe Illustrator 15.0.0, SVG Export Plug-In . SVG Version: 6.00 Build 0)  -->
<!DOCTYPE svg PUBLIC "-//W3C//DTD SVG 1.1//EN" "http://www.w3.org/Graphics/SVG/1.1/DTD/svg11.dtd">
<svg version="1.1" id="_x32_fe33128-053a-4817-a4ed-aa2ef8312af7"
	 xmlns="http://www.w3.org/2000/svg" xmlns:xlink="http://www.w3.org/1999/xlink" x="0px" y="0px" width="150px" height="75.988px"
	 viewBox="-142.5 -68.49 150 75.988" enable-background="new -142.5 -68.49 150 75.988" xml:space="preserve">
<title>vgc</title>
<path fill="#0000FF" d="M-59.977-10.139h0.449v5.722c0.918-0.673,2.021-1.025,3.154-0.996c1.523-0.049,2.979,0.625,3.916,1.826
	c0.869,1.191,1.328,2.637,1.289,4.121c0.059,1.778-0.479,3.516-1.543,4.942c-1.152,1.328-2.871,2.041-4.629,1.914
	c-0.85-0.019-1.689-0.137-2.51-0.323c-0.85-0.185-1.689-0.439-2.509-0.771V-9.622L-59.977-10.139z M-59.528,4.381
	c0.743,0.253,1.523,0.381,2.314,0.391c0.986,0.039,1.924-0.42,2.49-1.23C-54.235,2.78-53.981,1.901-54,0.983
	c0.039-0.918-0.215-1.817-0.723-2.578c-0.507-0.742-1.357-1.182-2.255-1.152c-0.889,0.02-1.748,0.292-2.509,0.761L-59.528,4.381z
	 M-41.599-2.162c-0.615-0.41-1.329-0.635-2.061-0.644c-0.908,0.02-1.787,0.342-2.509,0.917v9.053h-2.734V-5.257h2.305l0.264,1.025
	c0.85-0.8,1.973-1.25,3.144-1.29c0.41-0.019,0.831,0.02,1.221,0.128c0.43,0.048,0.85,0.186,1.23,0.38L-41.599-2.162z M-30.545,7.154
	l-0.254-0.967c-1.162,0.772-2.52,1.192-3.926,1.202c-1.113,0.04-2.207-0.323-3.076-1.025c-0.947-0.84-1.455-2.06-1.387-3.33v-8.291
	h2.744v7.451c-0.059,0.742,0.254,1.464,0.83,1.933c0.566,0.391,1.24,0.586,1.924,0.566c0.977,0,1.914-0.273,2.754-0.761v-9.189
	h2.733V7.154H-30.545z M-26.112,3.864c0.43,0.224,0.878,0.419,1.348,0.576c0.538,0.206,1.104,0.312,1.68,0.323
	c0.488,0.029,0.976-0.079,1.407-0.323c0.409-0.215,0.644-0.644,0.644-1.094c0-0.771-0.577-1.162-1.347-1.416
	c-0.42-0.127-0.831-0.273-1.231-0.449c-0.898-0.206-1.68-0.772-2.187-1.553c-0.284-0.508-0.41-1.084-0.381-1.66
	c-0.05-1.094,0.429-2.149,1.289-2.832c0.869-0.586,1.904-0.87,2.958-0.83c0.928,0.009,1.855,0.166,2.734,0.449v2.51l-0.127,0.117
	c-0.654-0.332-1.377-0.508-2.119-0.508c-0.468-0.029-0.928,0.059-1.347,0.254c-0.352,0.137-0.577,0.469-0.586,0.84
	c0,0.566,0.586,0.908,1.357,1.152c0.38,0.137,0.771,0.254,1.22,0.449c0.918,0.293,1.7,0.908,2.187,1.738
	c0.274,0.537,0.41,1.133,0.391,1.738c0.029,1.191-0.479,2.343-1.386,3.125c-0.957,0.703-2.109,1.054-3.291,1.024
	c-1.104,0.01-2.196-0.273-3.144-0.83V4.069L-26.112,3.864z M-17.245,3.864c0.43,0.224,0.878,0.419,1.347,0.576
	c0.537,0.206,1.104,0.312,1.68,0.323c0.488,0.029,0.976-0.079,1.406-0.323c0.41-0.215,0.645-0.644,0.645-1.094
	c0-0.771-0.566-1.162-1.348-1.416c-0.42-0.127-0.83-0.273-1.23-0.449c-0.898-0.206-1.68-0.772-2.187-1.553
	c-0.274-0.508-0.41-1.084-0.381-1.66c-0.049-1.094,0.429-2.149,1.289-2.832c0.869-0.586,1.905-0.87,2.959-0.83
	c0.928,0.009,1.855,0.166,2.734,0.449v2.51l-0.117,0.117c-0.664-0.332-1.386-0.508-2.128-0.508
	c-0.469-0.029-0.927,0.059-1.348,0.254c-0.341,0.137-0.566,0.45-0.586,0.821c0,0.566,0.586,0.908,1.357,1.152
	c0.381,0.136,0.772,0.253,1.221,0.449c0.917,0.293,1.699,0.909,2.188,1.738c0.273,0.538,0.41,1.133,0.391,1.738
	c0.039,1.211-0.469,2.363-1.387,3.145c-0.957,0.703-2.109,1.054-3.282,1.024c-1.113,0.01-2.197-0.273-3.154-0.83V4.069
	L-17.245,3.864z M1.719,3.933v2.734C0.635,7.135-0.527,7.379-1.709,7.389c-1.63,0.059-3.212-0.517-4.433-1.611
	c-1.26-1.279-1.924-3.027-1.826-4.814C-8.027-0.813-7.402-2.532-6.23-3.86c0.977-1.055,2.354-1.661,3.79-1.669
	c0.625,0,1.249,0.107,1.835,0.322c0.839,0.272,1.581,0.82,2.119,1.543c0.723,1.132,1.084,2.45,1.025,3.788v1.836h-7.46
	c0.166,0.869,0.683,1.641,1.426,2.12c0.663,0.419,1.455,0.615,2.245,0.576c1.075-0.029,2.139-0.312,3.086-0.84L1.719,3.933z
	 M-0.214-0.189c-0.02-0.742-0.312-1.445-0.84-1.992c-0.4-0.362-0.928-0.566-1.474-0.566C-3.114-2.756-3.691-2.551-4.14-2.181
	c-0.548,0.538-0.909,1.24-1.016,1.992H-0.214z M7.5-10.149V7.154H4.755v-17.04l2.442-0.253L7.5-10.149z"/>
<path fill="#0000FF" d="M-116.399-50.498c3.159-3.95,7.988-6.191,13.046-6.045c14.779,0,18.832,11.63,18.832,19.662v24.3
	c0.112,4.014,2.822,7.47,6.679,8.545c14.593-15.117,14.174-39.192-0.942-53.786c-7.001-6.758-16.322-10.576-26.053-10.668
	c-9.082,0.088-17.851,3.334-24.799,9.184C-123.938-59.038-118.85-55.654-116.399-50.498"/>
<path fill="#0000FF" d="M-93.197-12.581v-24.227c0-0.317-0.064-0.576-0.064-0.829c-0.258-5.63-4.907-10.063-10.542-10.059
	c-5.542,0.015-10.175,4.213-10.731,9.731c-0.054,0.406-0.078,0.815-0.063,1.221v22.552c0.005,2.393-1.919,4.335-4.306,4.375
	c-2.378,0-4.307-1.934-4.307-4.307l-0.127-29.31c-0.576-8.1-7.91-9.316-11.957-9.379c-12.299,17.021-8.466,40.788,8.559,53.083
	c6.377,4.609,14.033,7.119,21.898,7.196c6.918,0.039,13.71-1.855,19.604-5.488c-7.651-4.746-7.973-14.521-7.973-14.521"/>
</svg>
