<?xml version="1.0" encoding="utf-8"?>
<!-- Generator: Adobe Illustrator 15.0.0, SVG Export Plug-In . SVG Version: 6.00 Build 0)  -->
<!DOCTYPE svg PUBLIC "-//W3C//DTD SVG 1.1//EN" "http://www.w3.org/Graphics/SVG/1.1/DTD/svg11.dtd">
<svg version="1.1" id="Calque_1" xmlns="http://www.w3.org/2000/svg" xmlns:xlink="http://www.w3.org/1999/xlink" x="0px" y="0px"
	 width="996.54px" height="197px" viewBox="-490.846 -90.934 996.54 197" enable-background="new -490.846 -90.934 996.54 197"
	 xml:space="preserve">
<g>
	<polygon fill="#1B5FAA" points="80.669,75.456 85.802,64.533 92.165,54.936 101.762,46.009 112.686,38.312 124.181,31.853 
		132.541,26.152 141.469,19.692 149.829,10.855 158.189,-2.632 165.125,-16.787 166.361,-31.987 165.125,-44.147 158.189,-64.761 
		143.369,-80.627 124.181,-90.315 101.189,-90.315 80.669,-84.521 65.849,-74.927 58.154,-66.661 73.642,-46.807 79.342,-53.267 
		89.029,-59.537 103.662,-64.001 119.05,-64.001 129.881,-58.301 138.241,-49.941 142.802,-37.781 143.369,-31.987 142.802,-25.621 
		138.241,-16.787 132.541,-6.432 127.98,-1.968 120.948,3.163 113.349,8.198 101.189,15.325 88.365,24.253 76.206,35.748 
		65.849,49.236 59.485,64.533 57.586,71.656 57.586,95.976 65.849,95.976 65.849,105.477 165.789,105.477 165.789,78.688 
		80.669,78.688 	"/>
	<path fill="#1B5FAA" d="M303.349,10.855L303.349,10.855l0.759,9.597l-0.759,8.359l-1.237,8.265l-1.992,11.495l-3.8,13.397
		l-7.6,15.388l-9.119,10.259l-10.168,7.032l-11.492,5.128l-8.933,1.901l-8.928-1.329l-8.931-1.331l-7.788-3.041l-7.602-4.561
		l-7.127-7.026l-5.792-6.46l-5.037-8.933l-3.896-10.26l-3.227-8.359l-1.901-8.833l-1.331-9.691l-1.141-10.163l-0.665-2.564
		l17.957-1.9h-18.62V8.198l1.328-12.16l1.997-12.826l2.376-13.395l3.227-11.496l4.561-11.59l6.364-11.494l8.268-9.596l11.588-8.36
		l12.159-4.464l8.933-0.57l7.692,0.57l10.169,2.564l10.163,6.366l9.782,6.364l6.937,9.596l4.465,9.594l4.463,10.926l3.232,13.394
		v14.726l2.378,23.655L303.349,10.855z M279.028,28.053l0.759-8.265l-0.759-8.933V-1.301l-0.567-8.93l-0.67-9.596l-2.562-9.12
		L272-39.111l-3.232-7.126l-3.039-4.464l-5.887-3.896l-6.369-4.37l-5.791-1.234l-3.802-0.666l-4.559,0.666l-6.369,2.564
		l-7.028,5.037l-4.463,5.793l-3.8,7.126l-2.66,10.164l-2.473,8.36l-1.899,11.496l-1.328,10.923l-0.668,9.593v7.034h0.668
		l0.663,7.026l1.237,7.6l0.759,7.032l1.233,5.796l2.566,6.932l2.469,7.13l2.564,3.8l3.136,3.131l4.56,4.373l4.464,2.659l3.896,1.996
		l5.701,1.231l4.561,0.668l3.8-0.668l7.695-3.039l5.796-4.651l4.367-5.133l4.656-9.596l2.377-8.929l2.088-9.691L279.028,28.053z"/>
	<path fill="#1B5FAA" d="M355.884-71.127h11.497v174.135h-24.32V-60.867h-19.191v-15.294l32.015-9.026V-71.127z"/>
	<path fill="#1B5FAA" d="M396.827,67.096l13.488,21.092l19.192,14.062l19.187,2.659l21.66-1.9l16.721-9.119l12.732-15.96
		l3.228-10.164l1.996-14.729l0.663-16.623l-7.026-18.523L487.267,4.493l6.269-7.03l6.272-16.624l2.087-16.625l-4.464-19.854
		l-9.12-14.156l-16.623-10.164l-19.856-3.896l-22.323,1.9l-17.957,15.39l-9.591,19.76l-0.761,16.625l3.988,17.954l8.167,12.16
		l3.232,2.566l-9.596,7.126l-8.264,15.96l-3.8,16.052L396.827,67.096z M423.711-29.517v-9.594l4.464-10.927l8.359-7.693
		l12.732-1.236l14.062,0.57l9.783,7.696l3.136,4.464l2.089,11.59l-1.521,7.126l-3.228,7.694l-3.8,4.466l-7.6,6.934l-5.224,1.33
		h-0.668l0,0l-3.132,1.236l0,0l-9.028-1.236l-7.028-3.894l-7.6-7.03l-3.232-5.036L423.711-29.517L423.711-29.517z M419.815,37.076
		l4.56-8.265l5.133-5.224l5.796-2.472h23.651l7.032,1.899l8.36,4.47l6.267,6.459l3.233,5.031v10.833l-4.561,13.584l-6.272,7.504
		l-9.687,5.228l-15.297,1.424l-12.16-1.995l-10.924-8.36l-7.032-10.828l-1.231-12.828L419.815,37.076z"/>
</g>
<path fill="#1B5FAA" d="M-293.722-79.391l-38.474,181.067l-15.39-4.465l-15.294,4.465l-29.45-162.543l-29.449,162.543l-15.391-4.465
	l-15.39,4.465l-38.286-181.067l23.656-7.03l30.114,161.309l30.116-161.309l14.63,4.464l14.724-4.464l30.02,161.309l30.114-161.309
	L-293.722-79.391z"/>
<path fill="#1B5FAA" d="M-180.483,101.677l-19.189-58.231h-58.33l-18.43,58.231l-23.084-9.592l57-181.166l14.06,5.793l14.06-5.793
	l56.904,181.166L-180.483,101.677z M-255.343,33.276l12.16-15.387h36.48l-21.754-79.42L-255.343,33.276z"/>
<path fill="#1B5FAA" d="M-28.768,43.445v12.823l-5.13,13.488l-7.696,15.295l-11.494,12.16l-14.82,4.465h-68.496v-14.82h-12.16
	V-73.027h12.16v-14.724h58.9l12.16,3.23l11.02,6.934l7.6,7.791l7.03,8.93l3.23,11.496l1.996,10.923l-5.226,1.237l5.796,1.994v5.796
	l-3.896,17.193l-9.594,13.49l4.56,3.896l6.934,10.734l5.89,12.919L-28.768,43.445z M-73.607-59.537l-6.46-1.33h-44.176V1.929
	l7.696-10.26h35.91h1.994h1.236l6.364-2.47l6.366-5.13l5.131-7.126l1.33-9.69l0,0v-8.36l-2.566-6.27l-2.66-3.23l-4.464-4.463
	L-73.607-59.537z M-54.988,58.169l2.47-8.36v-3.8l-1.236-8.265l-2.564-6.459l-3.896-5.7l-5.794-5.133l-5.037-2.562h-7.6h-1.994
	h-43.606v66.499l7.696-10.26h46.17l6.364-1.9l4.466-4.464L-54.988,58.169z"/>
</svg>
