<?xml version="1.0" encoding="utf-8"?>
<!-- Generator: Adobe Illustrator 15.0.0, SVG Export Plug-In . SVG Version: 6.00 Build 0)  -->
<!DOCTYPE svg PUBLIC "-//W3C//DTD SVG 1.1//EN" "http://www.w3.org/Graphics/SVG/1.1/DTD/svg11.dtd">
<svg version="1.1" id="Calque_1" xmlns="http://www.w3.org/2000/svg" xmlns:xlink="http://www.w3.org/1999/xlink" x="0px" y="0px"
	 width="251.712px" height="103.872px" viewBox="-118.309 -44.309 251.712 103.872"
	 enable-background="new -118.309 -44.309 251.712 103.872" xml:space="preserve">
<g>
	<path fill="#1B5FAA" d="M-10.924-39.45l-20.909,98.693l-8.386-2.47l-8.338,2.47l-16.051-88.576l-16.035,88.576l-8.37-2.47
		l-8.338,2.47l-20.958-98.693l12.908-3.833l16.388,87.806l16.387-87.806l8.018,2.454l8.049-2.421l16.371,87.806L-23.8-43.25
		L-10.924-39.45z"/>
	<path fill="#1B5FAA" d="M50.793,59.563L40.338,27.847H8.622L-1.496,59.563l-12.539-5.228l31.027-98.645l7.664,3.126l7.601-3.126
		l31.075,98.645L50.793,59.563z M10.001,22.267l6.638-8.386h19.884L24.656-29.333L10.001,22.267z"/>
	<path fill="#1B5FAA" d="M133.403,27.494v6.991l-2.79,7.312l-4.169,8.339l-6.285,6.638l-8.018,2.47H74.877v-8.018h-6.671v-86.828
		h6.671v-8.017h32.102l6.574,1.748l5.965,3.833l4.201,4.185l3.784,4.858l1.731,6.27l1.09,5.933l-2.821,0.689l3.143,1.059v3.126
		l-2.085,9.413l-5.163,7.328l2.405,2.068l3.849,5.949l3.143,6.959L133.403,27.494z M108.999-28.274l-3.399-0.69H81.483V5.222
		l4.169-5.596h19.498h1.059h0.705l3.495-1.379l3.399-2.79l2.854-3.832l0.674-5.228l0,0v-4.57l-1.348-3.479l-1.41-1.732l-2.438-2.437
		L108.999-28.274z M119.133,35.832l1.347-4.489v-2.116l-0.706-4.555l-1.379-3.463l-2.084-3.127l-3.143-2.79l-2.759-1.411h-4.2
		h-1.059H81.483v36.255l4.169-5.58h25.078l3.527-1.026l2.438-2.438L119.133,35.832z"/>
</g>
</svg>
