<?xml version="1.0" encoding="utf-8"?>
<!-- Generator: Adobe Illustrator 15.0.0, SVG Export Plug-In . SVG Version: 6.00 Build 0)  -->
<!DOCTYPE svg PUBLIC "-//W3C//DTD SVG 1.1//EN" "http://www.w3.org/Graphics/SVG/1.1/DTD/svg11.dtd">
<svg version="1.1" id="Calque_1" xmlns="http://www.w3.org/2000/svg" xmlns:xlink="http://www.w3.org/1999/xlink" x="0px" y="0px"
	 width="1443.452px" height="100.333px" viewBox="-101.398 -85.333 1443.452 100.333"
	 enable-background="new -101.398 -85.333 1443.452 100.333" xml:space="preserve">
<g>
	<path fill="#1B5FAA" d="M1.75-80.757l-20.144,94.743l-7.974-2.349l-8.139,2.349l-15.452-84.97l-15.4,84.97l-7.974-2.349
		l-7.915,2.349l-20.151-94.743l12.446-3.663l15.73,84.419l15.669-84.419l7.701,2.352l7.756-2.352l15.728,84.419l15.779-84.419
		L1.75-80.757z"/>
	<path fill="#1B5FAA" d="M60.997,14.301l-10.05-30.521H20.539l-9.78,30.521L-1.304,9.287l29.759-94.743l7.368,3.062l7.371-3.062
		L73.066,9.287L60.997,14.301z M21.843-21.78l6.393-8.091h19.113L35.823-71.37L21.843-21.78z"/>
	<path fill="#1B5FAA" d="M140.286-84.748v98.733h-12.613V3.61l-4.37,5.022L90.544-57.39v71.044H77.763v-98.402h12.781v11.414
		l3.979-5.407l33.149,66.352v-72.358H140.286z"/>
	<path fill="#1B5FAA" d="M218.699-47.284l1.313,13.433h-0.655v2.673l-1.697,11.022l-3.004,8.317l-5.345,11.086l-7.428,7.035
		l-7.699,4.699l-6.935,2.02l-2.675,0.33h-27.522V5.629h-6.393v-83.004h6.393v-7.698h27.085l7.697,0.98l7.263,3.715l5.731,5.025
		l6.007,7.699l4.48,9.067L218.699-47.284z M206.577-32.543v-5.679l-0.654-6.385l-2.023-9.394l-3.002-6.392l-3.933-5.239
		l-3.329-3.003l-4.477-2.022l-5.245-0.712H163.77V5.033l4.039-5.352h16.105h1.313l4.692-1.366l5.078-3.339l4.701-4.699l3.657-7.688
		l2.022-5.747L206.577-32.543z"/>
	<path fill="#1B5FAA" d="M239.83,5.629l4.375-5.41h38.114v13.767h-48.874V6.283h-6.392v-83.441h6.392v-7.589h45.543v13.763H239.83
		v32.762l4.375-5.408h29.153v13.759h-33.194v35.5H239.83z"/>
	<path fill="#1B5FAA" d="M347.296-38.223l-7.045,5.679h-0.327l14.09,41.175l-11.736,6.007l-15.786-45.816h-20.808v44.832h-12.608
		v-90.813h6.333v-7.589h30.192h4.043l6.063,1.314l5.68,3.055l4.694,5.352l3.716,7.045l1.31,6.391l-6.112,1.906h6.333v5.356
		l-2.679,10.047L347.296-38.223z M305.684-70.985v32.057l4.042-5.353h18.461h1.309h3.388h0.65l0.986-0.327l4.37-4.042l2.35-3.337
		l1.365-4.692v-3.388l-0.654-3.003l-2.026-3.33l-2.35-2.57l-2.342-1.362l-3.062-0.654h-2.676H305.684z"/>
	<path fill="#1B5FAA" d="M360.732,13.985v-98.733h12.724v98.733H360.732z"/>
	<path fill="#1B5FAA" d="M449.082-84.748v98.733h-12.775V3.61l-4.365,5.022L399.173-57.39v71.044h-12.725v-98.402h12.725v11.414
		l4.039-5.407l33.095,66.352v-72.358H449.082z"/>
	<path fill="#1B5FAA" d="M522.415-35.547h6.063v24.361l-6.715,11.08l-7.756,8.084l-9.009,5.022l-9.774,1.3l-9.395-0.646
		l-8.354-3.326l-5.621-4.369l-5.355-6.064l-4.043-7.048l-3.002-8.297l-1.689-9.392l-0.653-8.028v-1.689h-1.362l2.728-15.728
		l2.35-8.743l4.369-7.637l5.345-6.667l6.341-6.058l9.661-4.041l8.033-0.661l7.694,1.372l6.937,1.631l6.717,5.029l6.719,7.427
		l3.704,6.935l1.314,2.343l-10.591,8.032l-1.036-3.003l-2.68-5.356l-4.365-5.077l-3.663-2.676l-4.695-0.871l-5.729-1.146
		l-4.701,0.485l-6.007,2.677l-3.932,3.557l-3.715,6.058l-2.78,4.692l-1.204,5.679l-1.034,7.045v6.718l0.326,6.064l1.362,7.036
		l1.699,6.005l3.002,5.748l3.33,3.656l3.713,2.725l5.345,2.356l6.392,0.317l6.392-0.712l5.24-3.106l5.353-5.353l3.388-7.035v-13.437
		h-21.845v-14.967h28.452v7.698H522.415z"/>
	<path fill="#1B5FAA" d="M624.861,14.301l-10.048-30.405h-30.416l-9.772,30.405l-12.07-5.014l29.871-94.743l7.262,3.062l7.371-3.062
		l29.872,94.743L624.861,14.301z M585.602-21.78l6.491-8.091h19.009L599.354-71.37L585.602-21.78z"/>
	<path fill="#1B5FAA" d="M695.854-38.223l-7.113,5.679h-0.213l13.985,41.175l-11.695,6.007l-15.726-45.816h-20.789v44.832h-12.782
		v-90.813h6.382v-7.589h30.147h3.935l6.104,1.314l5.792,3.055l4.802,5.352l3.398,7.045l1.638,6.391l-6.227,1.906h6.329v5.356
		l-2.615,10.047L695.854-38.223z M654.303-70.985v32.057l3.975-5.353h18.452h1.32h3.384h0.765l0.874-0.327l4.367-4.042l2.409-3.337
		l1.3-4.692v-3.388l-0.646-3.003l-1.975-3.33l-2.395-2.57l-2.407-1.362l-2.944-0.654h-2.731H654.303z"/>
	<path fill="#1B5FAA" d="M767.817-84.748v13.763H744.66v84.639h-12.666v-84.639h-23.157v-13.763H767.817z"/>
	<path fill="#1B5FAA" d="M838.473-27.132l4.698,8.355l-1.74,2.019v4.686l-1.321,8.634l-5.352,7.702l-4.251,3.716l-4.803,3.002
		l-5.684,2.02v1.638h-14.413l-5.902-1.308l-5.67-2.032l-4.369-3.005l-4.148-3.041l-3.397-3.339l-2.944-5.022l-3.716-7.269
		l11.358-7.747l1.645,3.715l2.725,5.022l2.292,2.013l3.386,2.686l2.406,1.683l3.715,1.32l4.045,0.932h5.341l4.367-1.049l4.382-1.307
		l2.609-1.696l2.297-2.019l2.29-2.9l0.771-4.686v-2.129l-0.991-1.585l-1.74-2.686l-3.275-2.35l-4.803-2.013l-5.907-1.643
		l-6.11-1.359l-11.579-3.708l-6.769-2.677l-5.359-5.683l-3.379-8.74l-0.654-8.407l1.308-8.022l3.715-8.033l5.689-6.384l8.077-3.714
		l6.11-1.311l5.235-0.712h6.122l5.242,1.362l4.363,1.372l6.342,3.767l5.669,5.404l1.645,1.637l-8.95,11.087l-1.644-3.33
		l-3.379-3.062l-4.046-2.453l-3.062-0.877l-3.48-1.039h-4.156l-4.381,0.327l-4.362,1.039l-4.59,2.349l-2.395,2.57l-1.637,3.711
		l-0.771,3.657l0.435,5.02l1.307,3.388l2.408,2.352l3.935,2.676l10.051,3.002L815-40.242l6.988,1.693l6.763,3.002l6.007,3.327
		L838.473-27.132z"/>
	<path fill="#1B5FAA" d="M941.903-16.538v6.712l-2.621,7.042l-3.935,8.038l-6.11,6.383l-7.644,2.349h-36.256V6.283h-6.343v-83.441
		h6.343v-7.589h30.787l6.336,1.692l5.677,3.663l4.149,4.039l3.61,4.696l1.644,6.006l1.088,5.737l-2.512,0.654l2.726,1.035v3.007
		l-1.954,9.057l-5.036,7.045l2.407,2.025l3.495,5.676l2.945,6.719L941.903-16.538z M918.1-70.114l-3.282-0.654H891.66v32.762
		l4.053-5.239h18.769h0.99h0.653l3.392-1.362l3.385-2.676l2.621-3.715l0.653-5.029l0,0v-4.366l-1.3-3.33l-1.54-1.689l-2.396-2.353
		L918.1-70.114z M927.917-8.46l1.32-4.369v-1.916l-0.666-4.363l-1.309-3.339l-2.175-3.049l-2.84-2.679l-2.731-1.366h-4.045h-0.99
		H891.66V5.351l4.053-5.352h24.128l3.274-0.972l2.407-2.349L927.917-8.46z"/>
	<path fill="#1B5FAA" d="M949.334,13.985v-98.733h12.665v98.733H949.334z"/>
	<path fill="#1B5FAA" d="M987.765,5.629l4.368-5.41h38.232v13.767h-48.704V6.283h-6.447v-83.441h6.447v-7.589h45.104v13.763h-39.215
		v32.762l4.369-5.408h29.157v13.759h-32.976v35.5H987.765z"/>
	<path fill="#1B5FAA" d="M1103.966-84.748v98.733h-12.667V3.61l-4.362,5.022l-32.762-66.021v71.044h-12.666v-98.402h12.666v11.414
		l3.929-5.407l33.195,66.352v-72.358H1103.966z"/>
	<path fill="#1B5FAA" d="M1176.932-84.748v98.733h-12.446V3.61l-4.381,5.022l-32.762-66.021v71.044h-12.887v-98.402h12.782v11.414
		l3.819-5.407l33.311,66.352v-72.358H1176.932z"/>
	<path fill="#1B5FAA" d="M1187.623,13.985v-98.733h12.666v98.733H1187.623z"/>
	<path fill="#1B5FAA" d="M1270.628,14.301l-10.038-30.405h-30.366l-9.722,30.405l-12.116-5.014l29.92-94.743l7.308,3.062
		l7.327-3.062l29.919,94.743L1270.628,14.301z M1231.529-21.78l6.337-8.091h19.229l-11.797-41.499L1231.529-21.78z"/>
	<path fill="#1B5FAA" d="M1300.562,5.629l3.929-5.41h37.563v13.767h-48.269V6.283h-6.556v-91.03h12.782v90.48L1300.562,5.629
		L1300.562,5.629z"/>
</g>
</svg>
