<svg id="Calque_1" data-name="Calque 1" xmlns="http://www.w3.org/2000/svg" viewBox="0 0 483.61 30.6"><defs><style>.cls-1{fill:#1d60aa;}</style></defs><title>WAB_logo_180409</title><path class="cls-1" d="M83.27,2l-6,28.32-2.39-.7-2.39.69L67.88,4.89,63.26,30.31l-2.39-.7-2.39.69L52.52,2,56.21.89l4.66,25.21L65.56.89l2.32.7,2.34-.7L74.9,26.09,79.59.89Z"/><path class="cls-1" d="M100.93,30.38l-3-9.09H88.86l-2.92,9.09-3.57-1.53L91.23.54l2.2.95L95.64.54l8.86,28.32ZM89.26,19.63l1.93-2.44h5.75L93.43,4.82Z"/><path class="cls-1" d="M124.64.8V30.28l-3.78,0,0-3.11-1.32,1.51L109.74,9V30.28h-3.8V.8h3.8V4.16L111,2.57l9.86,19.85V.8Z"/><path class="cls-1" d="M148,12l.44,4h-.23v.81l-.46,3.3-.91,2.53-1.63,3.27L143,28l-2.27,1.44-2.06.62-.84.11h-8.16V27.9h-1.88V3h1.88V.73h8.14l2.3.32,2.25,1.05,1.71,1.49,1.76,2.32,1.3,2.72Zm-3.59,4.46V14.77l-.16-1.9-.63-2.81-.9-1.88-1.23-1.6-1-.88-1.32-.63-1.58-.21h-6V27.68l1.23-1.62h4.8l.39,0,1.37-.4,1.53-1,1.42-1.35,1.14-2.3.63-1.74Z"/><path class="cls-1" d="M154.32,27.75l1.27-1.62H167v4.15H152.44V28h-1.92V3.1h1.92V.8H166V4.93H154.32v9.84l1.27-1.62h8.68V17.3h-9.95Z"/><path class="cls-1" d="M186.48,14.63l-2.14,1.72-.14,0,4.24,12.3-3.5,1.79-4.71-13.66h-6.15V30.28h-3.8V3.1h1.92V.8h10.18l1.76.44,1.65.95,1.44,1.62,1.13,2.07.42,1.9-1.85.56h1.93V9.92l-.77,3Zm-12.41-9.7v9.56l1.23-1.6h7.1l.3-.11L184,11.63l.72-1,.37-1.39v-1l-.21-.88-.56-1-.67-.77-.7-.39L182,4.93h-7.91Z"/><path class="cls-1" d="M190.42,30.28V.8h3.8V30.28Z"/><path class="cls-1" d="M216.89.8V30.28l-3.78,0,0-3.11-1.32,1.51L202,9V30.28h-3.8V.8H202V4.16l1.25-1.58,9.86,19.85V.8Z"/><path class="cls-1" d="M238.78,15.53h1.81v7.29l-2,3.25-2.29,2.36-2.67,1.49-2.88.4L228,30.14l-2.51-1-1.72-1.34L222.17,26,221,23.9,220,21.42l-.54-2.85-.18-2.37v-.53h-.39l.79-4.75.67-2.64L221.66,6l1.58-2,1.86-1.78L228,1l2.39-.21,2.27.4,2.07.47,2,1.48,2,2.18,1.13,2.09.35.65-3.23,2.41-.33-.95-.84-1.58L234.4,6.44l-1.11-.81-1.35-.33L230.24,5l-1.44.14L227,5.93,225.79,7l-1.14,1.79-.77,1.41L223.43,12l-.28,2.11v2l.12,1.83.39,2.07.49,1.81.91,1.69,1,1.13,1.09.84,1.58.65,1.92.12,1.93-.25,1.63-.95,1.56-1.58,1-2.07v-4h-6.5V13.23h8.49Z"/><path class="cls-1" d="M269.35,30.38l-3-9.09h-9.09l-2.92,9.09-3.57-1.53L259.64.54l2.2.95,2.21-.95,8.86,28.32ZM257.68,19.63l1.93-2.44h5.75L261.84,4.82Z"/><path class="cls-1" d="M290.53,14.63l-2.14,1.72-.14,0,4.24,12.3L289,30.49l-4.71-13.66h-6.15V30.28h-3.8V3.1h1.92V.8h10.18l1.76.44,1.65.95,1.44,1.62,1.13,2.07.42,1.9L291,8.34h1.93V9.92l-.77,3Zm-12.41-9.7v9.56l1.23-1.6h7.1l.3-.11L288,11.63l.72-1,.37-1.39v-1l-.21-.88-.56-1-.67-.77-.7-.39L286,4.93h-7.91Z"/><path class="cls-1" d="M312,.8V4.93h-6.87V30.28h-3.81V4.93H294.5V.8Z"/><path class="cls-1" d="M333.1,18l1.35,2.55-.47.56v1.37l-.37,2.6L332,27.41l-1.27,1.11-1.35.91-1.74.58v.46h-4.31L321.57,30l-1.67-.63-1.3-.91-1.2-.95-1.12-1-.88-1.39L314.35,23l3.29-2.29.49,1.05.86,1.46.63.56,1,.81.79.53,1.09.42,1.18.26h1.63l1.3-.28,1.28-.42.76-.49.7-.63L330,23l.16-1.44V21l-.26-.53-.54-.79-1-.67-1.35-.6L325.32,18l-1.83-.44L320,16.44l-2-.83-1.62-1.69-1-2.6-.18-2.48.35-2.43L316.65,4l1.71-1.92L320.73,1l1.83-.4,1.6-.19h1.79l1.58.42,1.3.4,1.86,1.13,1.72,1.56.4.46-2.6,3.3-.54-1-1-.88-1.2-.72-.86-.28-1.09-.26h-1.2l-1.27.14-1.3.28-1.35.65-.72.79-.47,1.09-.16,1.13.09,1.55.37,1,.65.7,1.18.76,3,.93,1.71.42,2.06.51,2,.9,1.81,1Z"/><path class="cls-1" d="M364,21.21l0,2-.79,2.06-1.2,2.41-1.79,1.88-2.32.7H347.15v-2.3h-1.88V3.07h1.88V.76h9.19l1.92.47,1.69,1.11,1.21,1.21L362.23,5l.54,1.76.33,1.71-.84.23.9.26v.91l-.6,2.69-1.49,2.11.69.58L362.86,17l.86,2ZM356.94,5.14l-1-.25h-6.91v9.84l1.25-1.62h6l1-.42,1-.84.81-1.12.25-1.48v0l0-1.34-.42-1-.39-.51-.74-.74Zm3,18.42.35-1.34,0-.63-.16-1.3-.42-1-.58-.88-.86-.79-.83-.39h-8.31V27.71l1.25-1.62h7.15l1-.28.65-.69Z"/><path class="cls-1" d="M366.22,30.28V.8H370V30.28Z"/><path class="cls-1" d="M377.77,27.75,379,26.13h11.37v4.15H375.89V28H374V3.1h1.92V.8h13.59V4.93H377.77v9.84L379,13.16h8.68V17.3h-9.95Z"/><path class="cls-1" d="M412.47.8V30.28l-3.78,0,0-3.11-1.32,1.51L397.56,9V30.28h-3.8V.8h3.8V4.16l1.25-1.58,9.86,19.85V.8Z"/><path class="cls-1" d="M434.28.8V30.28l-3.78,0,0-3.11-1.32,1.51L419.38,9V30.28h-3.8V.8h3.8V4.16l1.25-1.58,9.86,19.85V.8Z"/><path class="cls-1" d="M437.41,30.28V.8h3.8V30.28Z"/><path class="cls-1" d="M462.21,30.38l-3-9.09h-9.09l-2.92,9.09-3.57-1.53L452.51.54l2.2.95,2.21-.95,8.86,28.32ZM450.54,19.63l1.93-2.44h5.75L454.71,4.82Z"/><path class="cls-1" d="M471.14,27.75l1.25-1.6h11.21v4.13H469.23V28h-1.92V.8h3.83Z"/><polygon class="cls-1" points="3.65 25.93 4.38 24.2 5.45 22.75 6.92 21.37 8.65 20.16 10.4 19.11 11.7 18.28 13.16 17.26 14.46 15.87 15.74 13.75 16.77 11.52 17.07 9.11 16.82 7.2 15.74 4.08 13.45 1.56 10.41 0 6.79 0 3.57 0.94 1.29 2.46 0.11 3.7 2.48 6.88 3.44 5.86 4.92 4.86 7.18 4.16 9.65 4.16 11.36 5.02 12.63 6.39 13.28 8.24 13.39 9.17 13.28 10.17 12.62 11.58 11.72 13.1 11 13.88 9.88 14.69 8.7 15.43 6.85 16.51 4.82 17.98 2.91 19.76 1.37 21.82 0.28 24.25 0.01 25.32 0 29.11 1.34 29.11 1.34 30.6 16.89 30.6 16.89 26.42 3.65 26.42 3.65 25.93"/><path class="cls-1" d="M28.27,7.43l.3,1.42v6.39H26.7V9l-.15-.71-.35-.65L25.64,7,25,6.85l-.8.1-.59.45-.46.53-.6-.77v8.09H20.64V4.91h1.87V6.37l.55-.78.57-.51,1.43-.18,1.33.36,1.16.85Z"/><path class="cls-1" d="M36.3.72h1.86V15.24H36.3V14.08l-.21.2L35,15l-1.36.27-1.33-.53-1.18-1-.8-1.38-.5-1.51.06-1.08.18-1.07.73-1.92.92-1.06L33.3,4.9h1.45l1.34.64.21.26Zm-.61,11.17.61.77V7.11l-.55.7-.17-.18L35,7.25l-.64-.32h-.7l-.91.48-.47.54-.45,1-.15.74v.85l.28,1,.49.85.69.58.62.25.58-.12.67-.44.53-.53Z"/></svg>