<?xml version="1.0" encoding="utf-8"?>
<!-- Generator: Adobe Illustrator 21.1.0, SVG Export Plug-In . SVG Version: 6.00 Build 0)  -->
<svg version="1.1" id="Calque_1" xmlns="http://www.w3.org/2000/svg" xmlns:xlink="http://www.w3.org/1999/xlink" x="0px" y="0px"
	 viewBox="0 0 484.1 30.2" style="enable-background:new 0 0 484.1 30.2;" xml:space="preserve">
<style type="text/css">
	.st0{fill:#1D60AA;}
</style>
<path class="st0" d="M83.8,1.5l-6,28.3l-2.4-0.7L73,29.8L68.4,4.4l-4.6,25.4l-2.4-0.7L59,29.8l-6-28.3l3.7-1.1l4.7,25.2l4.7-25.2
	l2.3,0.7l2.3-0.7l4.7,25.2l4.7-25.2L83.8,1.5z"/>
<path class="st0" d="M101.5,29.8l-3-9.1h-9.1l-2.9,9.1l-3.6-1.5L91.8,0L94,0.9L96.2,0l8.9,28.3L101.5,29.8z M89.8,19.1l1.9-2.4h5.7
	L94,4.3L89.8,19.1z"/>
<path class="st0" d="M125.2,0.3v29.5l-3.8,0l0-3.1l-1.3,1.5l-9.8-19.7v21.2h-3.8V0.3h3.8v3.4l1.2-1.6l9.9,19.8V0.3H125.2z"/>
<path class="st0" d="M148.6,11.4l0.4,4h-0.2v0.8l-0.5,3.3l-0.9,2.5l-1.6,3.3l-2.2,2.1l-2.3,1.4l-2.1,0.6l-0.8,0.1h-8.2v-2.3h-1.9
	V2.5h1.9V0.2h8.1l2.3,0.3l2.2,1.1l1.7,1.5l1.8,2.3l1.3,2.7L148.6,11.4z M145,15.9v-1.7l-0.2-1.9l-0.6-2.8l-0.9-1.9L142.1,6l-1-0.9
	l-1.3-0.6l-1.6-0.2h-6v22.8l1.2-1.6h4.8l0.4,0l1.4-0.4l1.5-1l1.4-1.4l1.1-2.3l0.6-1.7L145,15.9z"/>
<path class="st0" d="M154.9,27.2l1.3-1.6h11.4v4.1H153v-2.3h-1.9V2.6h1.9V0.3h13.6v4.1h-11.7v9.8l1.3-1.6h8.7v4.1h-9.9V27.2z"/>
<path class="st0" d="M187,14.1l-2.1,1.7l-0.1,0l4.2,12.3l-3.5,1.8l-4.7-13.7h-6.2v13.4h-3.8V2.6h1.9V0.3h9h1.2l1.8,0.4l1.7,0.9
	l1.4,1.6l1.1,2.1l0.4,1.9l-1.8,0.6h1.9v1.6l-0.8,3L187,14.1z M174.6,4.4V14l1.2-1.6h5.5h0.4h1h0.2l0.3-0.1l1.3-1.2l0.7-1l0.4-1.4v-1
	l-0.2-0.9l-0.6-1L184.2,5l-0.7-0.4l-0.9-0.2h-0.8H174.6z"/>
<path class="st0" d="M191,29.7V0.3h3.8v29.5H191z"/>
<path class="st0" d="M217.4,0.3v29.5l-3.8,0l0-3.1l-1.3,1.5l-9.8-19.7v21.2h-3.8V0.3h3.8v3.4l1.2-1.6l9.9,19.8V0.3H217.4z"/>
<path class="st0" d="M239.3,15h1.8v7.3l-2,3.3l-2.3,2.4l-2.7,1.5l-2.9,0.4l-2.8-0.2l-2.5-1l-1.7-1.3l-1.6-1.8l-1.2-2.1l-0.9-2.5
	L220,18l-0.2-2.4v-0.5h-0.4l0.8-4.7l0.7-2.6l1.3-2.3l1.6-2l1.9-1.8l2.9-1.2l2.4-0.2l2.3,0.4l2.1,0.5l2,1.5l2,2.2l1.1,2.1l0.4,0.7
	l-3.2,2.4L237.1,9l-0.8-1.6l-1.3-1.5l-1.1-0.8l-1.4-0.3l-1.7-0.3l-1.4,0.1l-1.8,0.8l-1.2,1.1l-1.1,1.8l-0.8,1.4l-0.4,1.7l-0.3,2.1v2
	l0.1,1.8l0.4,2.1l0.5,1.8l0.9,1.7l1,1.1l1.1,0.8l1.6,0.7l1.9,0.1l1.9-0.2l1.6-0.9l1.6-1.6l1-2.1v-4h-6.5v-4.1h8.5V15z"/>
<path class="st0" d="M269.9,29.8l-3-9.1h-9.1l-2.9,9.1l-3.6-1.5L260.2,0l2.2,0.9l2.2-0.9l8.9,28.3L269.9,29.8z M258.2,19.1l1.9-2.4
	h5.7l-3.5-12.4L258.2,19.1z"/>
<path class="st0" d="M291.1,14.1l-2.1,1.7l-0.1,0l4.2,12.3l-3.5,1.8l-4.7-13.7h-6.2v13.4h-3.8V2.6h1.9V0.3h9h1.2l1.8,0.4l1.7,0.9
	l1.4,1.6l1.1,2.1l0.4,1.9l-1.8,0.6h1.9v1.6l-0.8,3L291.1,14.1z M278.7,4.4V14l1.2-1.6h5.5h0.4h1h0.2l0.3-0.1l1.3-1.2l0.7-1l0.4-1.4
	v-1l-0.2-0.9l-0.6-1L288.2,5l-0.7-0.4l-0.9-0.2h-0.8H278.7z"/>
<path class="st0" d="M312.6,0.3v4.1h-6.9v25.3h-3.8V4.4H295V0.3H312.6z"/>
<path class="st0" d="M333.6,17.5L335,20l-0.5,0.6V22l-0.4,2.6l-1.6,2.3l-1.3,1.1l-1.4,0.9l-1.7,0.6v0.5h-4.3l-1.8-0.4l-1.7-0.6
	l-1.3-0.9l-1.2-0.9l-1.1-1l-0.9-1.4l-1.1-2.2l3.3-2.3l0.5,1.1l0.9,1.5l0.6,0.6l1,0.8l0.8,0.5l1.1,0.4l1.2,0.3h1.6l1.3-0.3l1.3-0.4
	l0.8-0.5l0.7-0.6l0.7-0.9l0.2-1.4v-0.6l-0.3-0.5l-0.5-0.8l-1-0.7l-1.4-0.6l-1.8-0.5L324,17l-3.5-1.1l-2-0.8l-1.6-1.7l-1-2.6
	l-0.2-2.5l0.4-2.4l1.1-2.4l1.7-1.9l2.4-1.1l1.8-0.4l1.6-0.2h1.8l1.6,0.4l1.3,0.4l1.9,1.1l1.7,1.6l0.4,0.5l-2.6,3.3l-0.5-1l-1-0.9
	L328,4.5l-0.9-0.3L326.1,4h-1.2l-1.3,0.1l-1.3,0.3L321,5.1l-0.7,0.8l-0.5,1.1l-0.2,1.1l0.1,1.5l0.4,1l0.7,0.7l1.2,0.8l3,0.9l1.7,0.4
	l2.1,0.5l2,0.9l1.8,1L333.6,17.5z"/>
<path class="st0" d="M364.6,20.7l0,2l-0.8,2.1l-1.2,2.4l-1.8,1.9l-2.3,0.7h-10.8v-2.3h-1.9V2.5h1.9V0.2h9.2l1.9,0.5l1.7,1.1l1.2,1.2
	l1.1,1.4l0.5,1.8l0.3,1.7l-0.8,0.2l0.9,0.3v0.9l-0.6,2.7l-1.5,2.1l0.7,0.6l1.1,1.7l0.9,2L364.6,20.7z M357.5,4.6l-1-0.2h-6.9v9.8
	l1.2-1.6h5.6h0.3h0.2l1-0.4l1-0.8l0.8-1.1l0.2-1.5v0l0-1.3l-0.4-1l-0.4-0.5l-0.7-0.7L357.5,4.6z M360.4,23l0.4-1.3l0-0.6l-0.2-1.3
	l-0.4-1l-0.6-0.9l-0.9-0.8l-0.8-0.4h-1.2h-0.3h-6.8v10.4l1.2-1.6h7.2l1-0.3l0.7-0.7L360.4,23z"/>
<path class="st0" d="M366.8,29.7V0.3h3.8v29.5H366.8z"/>
<path class="st0" d="M378.3,27.2l1.3-1.6h11.4v4.1h-14.5v-2.3h-1.9V2.6h1.9V0.3H390v4.1h-11.7v9.8l1.3-1.6h8.7v4.1h-9.9V27.2z"/>
<path class="st0" d="M413,0.3v29.5l-3.8,0l0-3.1l-1.3,1.5l-9.8-19.7v21.2h-3.8V0.3h3.8v3.4l1.2-1.6l9.9,19.8V0.3H413z"/>
<path class="st0" d="M434.8,0.3v29.5l-3.8,0l0-3.1l-1.3,1.5l-9.8-19.7v21.2h-3.8V0.3h3.8v3.4l1.2-1.6l9.9,19.8V0.3H434.8z"/>
<path class="st0" d="M438,29.7V0.3h3.8v29.5H438z"/>
<path class="st0" d="M462.8,29.8l-3-9.1h-9.1l-2.9,9.1l-3.6-1.5L453.1,0l2.2,0.9l2.2-0.9l8.9,28.3L462.8,29.8z M451.1,19.1l1.9-2.4
	h5.7l-3.5-12.4L451.1,19.1z"/>
<path class="st0" d="M471.7,27.2l1.2-1.6h11.2v4.1h-14.4v-2.3h-1.9V0.3h3.8V27.2z"/>
<path class="st0" d="M18.4,17.1l0.7,2.9v2.8l-1.2,2.7l-1.7,2.1l-2.6,1.8l-2.8,0.6H7.9l-2.8-1.3l-2.3-1.8l-1.4-1.8l-0.8-1.5L0,22.5
	l3.4-2.3l0.5,1.3l0.5,1l1,1.4l1.5,1.2L8.7,26h1.7l1.8-0.4l1.6-1.1l1-1.6l0.3-1.2v-1.6l-0.2-0.8l-0.8-1.2L12.9,17l-2.6-0.4H7.9v-3.9
	h2.5l1.1-0.2l1.5-0.8l0.8-0.9l0.4-0.9l0.2-1.8l-0.6-1.8l-0.8-1L12,4.5l-1.6-0.3H8.7L6.9,4.8L5.4,6.3L4.6,7.4L2,4l0.9-1l2.3-2
	l2.9-1.1h2.6l2.6,0.5l2.2,1.4l1.9,2.4l0.9,3.3v2.6L16.9,13l-1,1l0.8,0.5L18.4,17.1z"/>
<path class="st0" d="M27.7,4.4l0.7,0.2L27.8,7l-0.5-0.5l-0.5-0.1l-0.6,0.1L25.5,7l-0.4,0.5l-0.6-0.8v8.6h-2V4.4h2v0.9l1.3-0.7l1-0.2
	L27.7,4.4z"/>
<path class="st0" d="M35.6-0.1h2v15.3h-2V14l-0.2,0.2L34.3,15l-1.4,0.3l-1.4-0.6l-1.2-1.1l-0.8-1.5l-0.5-1.6l0.1-1.1l0.2-1.1l0.8-2
	l1-1.1l1.7-0.9H34L35.4,5l0.2,0.3V-0.1z M35,11.7l0.6,0.8V6.7l-0.6,0.7l-0.2-0.2l-0.6-0.4l-0.7-0.3h-0.7l-1,0.5l-0.5,0.6l-0.5,1.1
	l-0.2,0.8v0.9l0.3,1l0.5,0.9l0.7,0.6l0.6,0.3l0.6-0.1l0.7-0.5l0.6-0.6L35,11.7z"/>
</svg>
